<svg width="56" height="56" viewBox="0 0 56 56" fill="none" xmlns="http://www.w3.org/2000/svg">
<rect x="0.5" y="0.5" width="55" height="55" rx="7.5" fill="#7B46AC"/>
<g opacity="0.15">
<path d="M35.4828 21.3619C35.4828 25.6945 31.9706 29.2067 27.638 29.2067C23.3054 29.2067 19.7932 25.6945 19.7932 21.3619C19.7932 17.0293 23.3054 13.5171 27.638 13.5171C31.9706 13.5171 35.4828 17.0293 35.4828 21.3619Z" fill="white"/>
<path d="M28.512 27.4728C27.7941 27.8158 26.9902 28.0079 26.1415 28.0079C25.305 28.0079 24.5121 27.8213 23.8021 27.4876V36.0241C23.8021 37.3247 24.8565 38.379 26.1571 38.379C27.4577 38.379 28.512 37.3247 28.512 36.0241V27.4728Z" fill="white"/>
<path d="M30.4419 25.052C30.841 24.2897 31.0667 23.4223 31.0667 22.5021C31.0667 21.8079 30.9382 21.1437 30.7037 20.532C30.8707 20.4945 31.0444 20.4747 31.2227 20.4747C33.0661 20.4747 34.7514 21.1735 36.0231 22.3222C37.2913 21.174 38.9733 20.4747 40.8187 20.4747C44.7662 20.4747 47.9663 23.6747 47.9663 27.6222V27.6235L47.9569 35.9776C47.9555 37.2782 46.8999 38.3314 45.5993 38.3299C44.2987 38.3285 43.2455 37.2729 43.247 35.9723L43.2564 27.6222V27.6214C43.2559 26.2755 42.1647 25.1846 40.8187 25.1846C39.4725 25.1846 38.3811 26.2759 38.3811 27.6222V35.975C38.3811 37.2756 37.3268 38.3299 36.0262 38.3299C34.7256 38.3299 33.6712 37.2756 33.6712 35.975L33.6712 27.6222C33.6712 26.2829 32.5759 25.1846 31.2227 25.1846C30.949 25.1846 30.6862 25.1379 30.4419 25.052Z" fill="white"/>
<path fill-rule="evenodd" clip-rule="evenodd" d="M13.0898 25.0914C11.3574 25.0914 9.95504 26.4948 9.95504 28.2234C9.95504 29.952 11.3574 31.3553 13.0898 31.3553C14.8222 31.3553 16.2245 29.952 16.2245 28.2234C16.2245 26.4948 14.8222 25.0914 13.0898 25.0914ZM9.95504 35.414C10.9152 35.8329 11.9754 36.0652 13.0898 36.0652C17.4211 36.0652 20.9345 32.5554 20.9345 28.2234C20.9345 23.8913 17.4211 20.3815 13.0898 20.3815C8.75842 20.3815 5.24512 23.8913 5.24512 28.2234V35.9928C5.24512 37.2934 6.29947 38.3478 7.60008 38.3478C8.90069 38.3478 9.95504 37.2934 9.95504 35.9928V35.414Z" fill="white"/>
</g>
<ellipse cx="27.6867" cy="21.2559" rx="3.22902" ry="3.22902" fill="white"/>
<path d="M30.0566 26.6708C29.331 26.9889 28.5291 27.1654 27.6861 27.1654C26.8551 27.1654 26.0641 26.9939 25.3467 26.6844V34.7761C25.3467 36.0767 26.401 37.1311 27.7017 37.1311C29.0023 37.1311 30.0566 36.0767 30.0566 34.7761V26.6708Z" fill="white"/>
<path d="M32.9667 23.9455C33.3773 23.1369 33.6087 22.222 33.6087 21.253C33.6087 20.5482 33.4863 19.8719 33.2615 19.2444C34.9111 19.3572 36.4106 20.0299 37.5677 21.0751C38.8359 19.927 40.5179 19.2276 42.3633 19.2276C46.3108 19.2276 49.5109 22.4277 49.5109 26.3751V26.3765L49.5015 34.7306C49.5001 36.0312 48.4445 37.0843 47.1439 37.0829C45.8433 37.0814 44.7901 36.0259 44.7916 34.7253L44.801 26.3751V26.3743C44.8005 25.0284 43.7093 23.9375 42.3633 23.9375C41.0171 23.9375 39.9257 25.0289 39.9257 26.3751V34.7279C39.9257 36.0285 38.8714 37.0829 37.5708 37.0829C36.2702 37.0829 35.2158 36.0285 35.2158 34.7279L35.2158 26.3751C35.2158 25.1023 34.2265 24.0471 32.9667 23.9455Z" fill="white"/>
<path fill-rule="evenodd" clip-rule="evenodd" d="M14.6345 23.8432C12.9021 23.8432 11.4997 25.2466 11.4997 26.9752C11.4997 28.7038 12.9021 30.1071 14.6345 30.1071C16.3669 30.1071 17.7692 28.7038 17.7692 26.9752C17.7692 25.2466 16.3669 23.8432 14.6345 23.8432ZM11.4997 34.1659C12.4599 34.5847 13.5201 34.8171 14.6345 34.8171C18.9658 34.8171 22.4791 31.3073 22.4791 26.9752C22.4791 22.6431 18.9658 19.1333 14.6345 19.1333C10.3031 19.1333 6.7898 22.6431 6.78979 26.9752V34.7447C6.78979 36.0453 7.84415 37.0996 9.14476 37.0996C10.4454 37.0996 11.4997 36.0453 11.4997 34.7447V34.1659Z" fill="white"/>
<rect x="0.5" y="0.5" width="55" height="55" rx="7.5" stroke="white"/>
</svg>
