<svg width="180" height="58" viewBox="0 0 180 58" fill="none" xmlns="http://www.w3.org/2000/svg">
<g clip-path="url(#clip0_1_107)">
<path d="M167.9 -1.52617H13.1303C12.5661 -1.52617 12.0087 -1.52617 11.4461 -1.52312C10.9751 -1.52006 10.5078 -1.5112 10.0323 -1.50373C8.99926 -1.49167 7.96863 -1.40151 6.94939 -1.23402C5.93158 -1.06288 4.94566 -0.740245 4.02496 -0.277017C3.10539 0.19013 2.26516 0.797139 1.53473 1.52199C0.800475 2.2448 0.188414 3.08028 -0.277914 3.99629C-0.745529 4.91047 -1.06977 5.89011 -1.23945 6.90135C-1.41074 7.91132 -1.50292 8.93294 -1.51514 9.95704C-1.52942 10.425 -1.53093 10.8945 -1.53845 11.3626V46.6422C-1.53093 47.1161 -1.52942 47.5753 -1.51514 48.0493C-1.50291 49.0734 -1.41074 50.0949 -1.23945 51.1049C-1.07024 52.1167 -0.745978 53.0969 -0.277914 54.0114C0.188202 54.9245 0.800349 55.7566 1.53473 56.4754C2.26239 57.2034 3.10317 57.8108 4.02496 58.2744C4.94565 58.7389 5.93147 59.0634 6.94939 59.2372C7.96881 59.4034 8.99933 59.4936 10.0323 59.5071C10.5078 59.5175 10.9751 59.5234 11.4461 59.5234C12.0087 59.5265 12.5662 59.5265 13.1303 59.5265H167.9C168.453 59.5265 169.014 59.5265 169.567 59.5234C170.036 59.5234 170.517 59.5175 170.986 59.5071C172.017 59.4943 173.045 59.4041 174.063 59.2372C175.084 59.0622 176.073 58.7378 176.998 58.2744C177.919 57.8106 178.759 57.2032 179.486 56.4754C180.219 55.7537 180.832 54.9223 181.304 54.0114C181.769 53.0962 182.09 52.1161 182.257 51.1049C182.428 50.0948 182.524 49.0735 182.542 48.0493C182.548 47.5753 182.548 47.1161 182.548 46.6422C182.56 46.0877 182.56 45.5362 182.56 44.9727V13.029C182.56 12.47 182.56 11.9155 182.548 11.3626C182.548 10.8945 182.548 10.425 182.542 9.95698C182.524 8.93279 182.428 7.9114 182.257 6.90129C182.089 5.89063 181.768 4.91107 181.304 3.99622C180.354 2.16018 178.849 0.665659 176.998 -0.277154C176.073 -0.73925 175.084 -1.0618 174.063 -1.23415C173.045 -1.40238 172.017 -1.49258 170.986 -1.50395C170.517 -1.51139 170.036 -1.52034 169.567 -1.52331C169.014 -1.52637 168.453 -1.52637 167.9 -1.52637V-1.52617Z" fill="#A6A6A6"/>
<path d="M11.4536 58.1911C10.9849 58.1911 10.5275 58.1852 10.0624 58.1748C9.09901 58.1624 8.13785 58.0792 7.18683 57.9259C6.30004 57.7743 5.44099 57.4925 4.63799 57.0896C3.84237 56.6901 3.11669 56.1661 2.48876 55.5379C1.85175 54.9172 1.32141 54.1972 0.918749 53.4065C0.511656 52.6106 0.229923 51.7576 0.0833644 50.877C-0.0749058 49.9309 -0.160536 48.9742 -0.172789 48.0152C-0.182543 47.6933 -0.195312 46.6215 -0.195312 46.6215V11.3628C-0.195312 11.3628 -0.181712 10.3075 -0.172712 9.99742C-0.16098 9.03994 -0.0758476 8.08472 0.0819491 7.14005C0.228778 6.25711 0.510729 5.40161 0.918041 4.60316C1.31922 3.81301 1.84662 3.09246 2.4798 2.46945C3.11226 1.84052 3.84026 1.31391 4.63724 0.908838C5.43839 0.507239 6.29582 0.227373 7.18081 0.078614C8.13496 -0.0762061 9.09946 -0.159909 10.0662 -0.171793L11.4544 -0.19043H169.56L170.965 -0.171045C171.923 -0.159752 172.878 -0.0767955 173.824 0.0771182C174.718 0.227743 175.584 0.509562 176.394 0.91331C177.991 1.72965 179.29 3.02119 180.11 4.60689C180.511 5.39982 180.788 6.24834 180.933 7.12366C181.093 8.07608 181.182 9.0388 181.2 10.0041C181.205 10.4364 181.205 10.9007 181.205 11.3628C181.217 11.9351 181.217 12.4799 181.217 13.0292V44.9729C181.217 45.5275 181.217 46.0685 181.205 46.614C181.205 47.1104 181.205 47.5651 181.199 48.0331C181.181 48.9812 181.093 49.9267 180.936 50.8621C180.792 51.749 180.512 52.6087 180.105 53.411C179.7 54.1931 179.172 54.9069 178.543 55.526C177.914 56.1576 177.187 56.6846 176.39 57.0867C175.582 57.4927 174.717 57.7756 173.824 57.9259C172.873 58.08 171.911 58.1632 170.948 58.1748C170.497 58.1852 170.026 58.1911 169.567 58.1911L167.9 58.1942L11.4536 58.1911Z" fill="black"/>
<path d="M36.5675 29.4598C36.584 28.1858 36.9251 26.9367 37.559 25.8287C38.1929 24.7207 39.099 23.7897 40.1929 23.1224C39.498 22.1377 38.5811 21.3273 37.5152 20.7556C36.4493 20.184 35.2638 19.8667 34.0527 19.8291C31.4692 19.5601 28.9647 21.3628 27.6482 21.3628C26.3063 21.3628 24.2794 19.8558 22.0967 19.9004C20.6849 19.9456 19.309 20.3529 18.103 21.0826C16.897 21.8123 15.9022 22.8394 15.2153 24.064C12.2399 29.1747 14.4593 36.6858 17.3094 40.8169C18.7354 42.8399 20.402 45.0995 22.5827 45.0194C24.7166 44.9315 25.5136 43.6694 28.0895 43.6694C30.6414 43.6694 31.3892 45.0194 33.6141 44.9684C35.9039 44.9315 37.3466 42.9365 38.7226 40.8945C39.7472 39.4531 40.5356 37.86 41.0586 36.1743C39.7283 35.6161 38.593 34.6817 37.7944 33.4877C36.9957 32.2937 36.569 30.8928 36.5675 29.4598Z" fill="white"/>
<path d="M32.3649 17.112C33.6134 15.625 34.2285 13.7138 34.0796 11.7842C32.1722 11.9829 30.4102 12.8874 29.1448 14.3173C28.5262 15.0158 28.0523 15.8285 27.7504 16.7088C27.4485 17.5891 27.3244 18.5199 27.3853 19.4478C28.3394 19.4576 29.2832 19.2524 30.1458 18.8478C31.0083 18.4432 31.7671 17.8497 32.3649 17.112Z" fill="white"/>
<path d="M63.5419 39.8972H56.2597L54.5109 45.0202H51.4265L58.3241 26.0664H61.5287L68.4262 45.0202H65.2892L63.5419 39.8972ZM57.0139 37.5332H62.7863L59.9407 29.2189H59.8611L57.0139 37.5332Z" fill="white"/>
<path d="M83.3226 38.112C83.3226 42.4062 81.0059 45.1652 77.5098 45.1652C76.6241 45.2112 75.7434 45.0088 74.9683 44.5812C74.1932 44.1536 73.5552 43.5182 73.1273 42.7475H73.0611V49.5921H70.202V31.2018H72.9695V33.5002H73.0221C73.4697 32.7333 74.1185 32.1011 74.8995 31.6709C75.6805 31.2408 76.5644 31.0287 77.4572 31.0572C80.9923 31.0573 83.3226 33.8296 83.3226 38.112ZM80.3839 38.112C80.3839 35.3143 78.9265 33.4749 76.703 33.4749C74.5185 33.4749 73.0491 35.353 73.0491 38.112C73.0491 40.8963 74.5185 42.761 76.703 42.761C78.9265 42.761 80.3839 40.9351 80.3839 38.112Z" fill="white"/>
<path d="M98.6531 38.112C98.6531 42.4062 96.3364 45.1652 92.8403 45.1652C91.9547 45.2112 91.0739 45.0088 90.2989 44.5812C89.5238 44.1536 88.8858 43.5181 88.4578 42.7475H88.3917V49.5921H85.5326V31.2018H88.3V33.5002H88.3526C88.8002 32.7333 89.449 32.1011 90.23 31.6709C91.011 31.2408 91.8949 31.0287 92.7877 31.0572C96.3229 31.0572 98.6531 33.8296 98.6531 38.112ZM95.7144 38.112C95.7144 35.3142 94.2571 33.4749 92.0335 33.4749C89.849 33.4749 88.3797 35.353 88.3797 38.112C88.3797 40.8963 89.849 42.761 92.0335 42.761C94.2571 42.761 95.7144 40.9351 95.7144 38.112H95.7144Z" fill="white"/>
<path d="M108.785 39.7398C108.997 41.6194 110.838 42.8535 113.353 42.8535C115.762 42.8535 117.496 41.6193 117.496 39.9246C117.496 38.4534 116.451 37.5725 113.975 36.9688L111.499 36.3771C107.99 35.5364 106.362 33.9087 106.362 31.2675C106.362 27.9972 109.234 25.751 113.314 25.751C117.35 25.751 120.118 27.9972 120.211 31.2675H117.325C117.152 29.376 115.576 28.2342 113.273 28.2342C110.97 28.2342 109.394 29.3894 109.394 31.0707C109.394 32.4107 110.4 33.1992 112.863 33.8028L114.968 34.3156C118.887 35.2353 120.516 36.7974 120.516 39.5697C120.516 43.1157 117.669 45.3367 113.141 45.3367C108.904 45.3367 106.043 43.1679 105.859 39.7397L108.785 39.7398Z" fill="white"/>
<path d="M126.686 27.9316V31.2019H129.335V33.4481H126.686V41.0663C126.686 42.2498 127.217 42.8013 128.381 42.8013C128.696 42.7959 129.009 42.7739 129.322 42.7357V44.9685C128.798 45.0655 128.266 45.1095 127.734 45.0997C124.914 45.0997 123.814 44.0488 123.814 41.3688V33.4481H121.789V31.2019H123.814V27.9316H126.686Z" fill="white"/>
<path d="M130.869 38.1123C130.869 33.7644 133.45 31.0322 137.475 31.0322C141.514 31.0322 144.083 33.7643 144.083 38.1123C144.083 42.4721 141.527 45.1924 137.475 45.1924C133.425 45.1924 130.869 42.4721 130.869 38.1123ZM141.17 38.1123C141.17 35.1297 139.792 33.3694 137.475 33.3694C135.158 33.3694 133.782 35.1431 133.782 38.1123C133.782 41.1068 135.158 42.8537 137.475 42.8537C139.792 42.8537 141.17 41.1068 141.17 38.1123H141.17Z" fill="white"/>
<path d="M146.44 31.2017H149.167V33.5537H149.233C149.418 32.8192 149.851 32.17 150.461 31.7153C151.072 31.2606 151.821 31.0282 152.583 31.0571C152.913 31.0559 153.241 31.0915 153.563 31.1629V33.8161C153.147 33.69 152.713 33.6321 152.278 33.6447C151.863 33.628 151.449 33.7006 151.065 33.8577C150.68 34.0147 150.335 34.2524 150.052 34.5544C149.769 34.8565 149.555 35.2157 149.425 35.6075C149.295 35.9992 149.252 36.4142 149.299 36.824V45.0205H146.44L146.44 31.2017Z" fill="white"/>
<path d="M166.745 40.9622C166.36 43.4708 163.898 45.1924 160.747 45.1924C156.695 45.1924 154.18 42.499 154.18 38.1779C154.18 33.8434 156.709 31.0322 160.627 31.0322C164.481 31.0322 166.904 33.6586 166.904 37.8485V38.8203H157.067V38.9917C157.021 39.5003 157.085 40.0126 157.255 40.4947C157.424 40.9768 157.695 41.4175 158.05 41.7877C158.404 42.158 158.834 42.4491 159.31 42.6419C159.787 42.8347 160.299 42.9247 160.814 42.9059C161.489 42.9687 162.167 42.8134 162.747 42.4632C163.326 42.113 163.776 41.5866 164.03 40.9622L166.745 40.9622ZM157.08 36.8379H164.044C164.069 36.3806 163.999 35.923 163.838 35.4938C163.677 35.0646 163.429 34.673 163.108 34.3437C162.787 34.0144 162.401 33.7544 161.974 33.58C161.547 33.4057 161.089 33.3208 160.627 33.3306C160.162 33.3279 159.7 33.4166 159.269 33.5918C158.838 33.7669 158.447 34.025 158.117 34.351C157.787 34.6771 157.526 35.0647 157.348 35.4916C157.17 35.9184 157.079 36.376 157.08 36.8379V36.8379Z" fill="white"/>
<path d="M56.6556 11.8004C57.255 11.7577 57.8565 11.8475 58.4167 12.0634C58.9769 12.2793 59.4818 12.6158 59.895 13.0487C60.3082 13.4816 60.6194 14.0001 60.8062 14.5668C60.9929 15.1334 61.0506 15.7342 60.975 16.3257C60.975 19.2352 59.39 20.9077 56.6556 20.9077H53.3398V11.8004H56.6556ZM54.7656 19.6197H56.4964C56.9247 19.6451 57.3533 19.5754 57.7511 19.4157C58.1488 19.2561 58.5057 19.0104 58.7957 18.6967C59.0857 18.3829 59.3015 18.0089 59.4274 17.602C59.5534 17.195 59.5863 16.7654 59.5237 16.3442C59.5817 15.9247 59.5455 15.4977 59.4176 15.0938C59.2898 14.6898 59.0734 14.3189 58.7841 14.0076C58.4947 13.6964 58.1396 13.4525 57.7441 13.2934C57.3486 13.1343 56.9225 13.0639 56.4964 13.0874H54.7656V19.6197Z" fill="white"/>
<path d="M62.5856 17.4684C62.5421 17.0167 62.5942 16.561 62.7385 16.1305C62.8829 15.7 63.1164 15.3041 63.424 14.9684C63.7316 14.6326 64.1065 14.3643 64.5248 14.1808C64.943 13.9972 65.3953 13.9023 65.8526 13.9023C66.31 13.9023 66.7623 13.9972 67.1805 14.1808C67.5987 14.3643 67.9737 14.6326 68.2813 14.9684C68.5889 15.3041 68.8223 15.7 68.9667 16.1305C69.1111 16.561 69.1632 17.0167 69.1196 17.4684C69.164 17.9205 69.1125 18.3769 68.9685 18.8081C68.8245 19.2393 68.5912 19.6359 68.2835 19.9723C67.9758 20.3087 67.6006 20.5776 67.182 20.7615C66.7633 20.9455 66.3105 21.0405 65.8526 21.0405C65.3947 21.0405 64.9419 20.9455 64.5233 20.7615C64.1046 20.5776 63.7294 20.3087 63.4217 19.9723C63.114 19.6359 62.8807 19.2393 62.7367 18.8081C62.5927 18.3769 62.5413 17.9205 62.5856 17.4684ZM67.7133 17.4684C67.7133 15.9786 67.0388 15.1074 65.8549 15.1074C64.6665 15.1074 63.998 15.9786 63.998 17.4684C63.998 18.9701 64.6665 19.8346 65.8549 19.8346C67.0388 19.8346 67.7134 18.9642 67.7134 17.4684H67.7133Z" fill="white"/>
<path d="M77.805 20.908H76.3867L74.9549 15.8462H74.8468L73.421 20.908H72.0162L70.1067 14.0352H71.4934L72.7344 19.2796H72.8366L74.2608 14.0352H75.5724L76.9967 19.2796H77.1049L78.3399 14.0352H79.707L77.805 20.908Z" fill="white"/>
<path d="M81.3131 14.0349H82.6292V15.1268H82.7314C82.9047 14.7346 83.197 14.4059 83.5676 14.1864C83.9382 13.9669 84.3685 13.8676 84.7987 13.9023C85.1358 13.8771 85.4742 13.9276 85.789 14.0498C86.1038 14.1721 86.3868 14.363 86.6171 14.6085C86.8473 14.854 87.019 15.1478 87.1193 15.468C87.2196 15.7883 87.246 16.1268 87.1965 16.4585V20.9078H85.8293V16.7992C85.8293 15.6947 85.3456 15.1454 84.3345 15.1454C84.1056 15.1348 83.8771 15.1735 83.6647 15.2587C83.4523 15.3439 83.261 15.4737 83.1039 15.6391C82.9468 15.8045 82.8276 16.0017 82.7545 16.2171C82.6814 16.4325 82.6561 16.6611 82.6803 16.8871V20.9078H81.3131L81.3131 14.0349Z" fill="white"/>
<path d="M89.375 11.3516H90.7422V20.9074H89.375V11.3516Z" fill="white"/>
<path d="M92.6427 17.4675C92.5992 17.0158 92.6513 16.5601 92.7957 16.1296C92.9401 15.699 93.1736 15.3032 93.4813 14.9674C93.7889 14.6316 94.1639 14.3634 94.5821 14.1798C95.0004 13.9962 95.4527 13.9014 95.9101 13.9014C96.3675 13.9014 96.8198 13.9962 97.238 14.1798C97.6563 14.3634 98.0313 14.6316 98.3389 14.9674C98.6465 15.3032 98.88 15.699 99.0244 16.1296C99.1688 16.5601 99.221 17.0158 99.1774 17.4675C99.2218 17.9197 99.1702 18.376 99.0262 18.8073C98.8822 19.2385 98.6488 19.635 98.3411 19.9714C98.0334 20.3079 97.6581 20.5767 97.2395 20.7606C96.8208 20.9446 96.368 21.0396 95.9101 21.0396C95.4522 21.0396 94.9994 20.9446 94.5807 20.7606C94.162 20.5767 93.7868 20.3079 93.4791 19.9714C93.1714 19.635 92.938 19.2385 92.794 18.8073C92.6499 18.376 92.5984 17.9197 92.6427 17.4675ZM97.7704 17.4675C97.7704 15.9778 97.0958 15.1065 95.912 15.1065C94.7236 15.1065 94.055 15.9778 94.055 17.4676C94.055 18.9693 94.7236 19.8338 95.912 19.8338C97.0959 19.8338 97.7704 18.9633 97.7704 17.4675H97.7704Z" fill="white"/>
<path d="M100.617 18.9642C100.617 17.7271 101.545 17.0138 103.193 16.9125L105.07 16.8052V16.2119C105.07 15.486 104.586 15.0761 103.652 15.0761C102.888 15.0761 102.359 15.3541 102.208 15.84H100.884C101.024 14.6595 102.143 13.9023 103.715 13.9023C105.451 13.9023 106.431 14.7601 106.431 16.2119V20.9079H105.115V19.942H105.007C104.787 20.2885 104.479 20.5709 104.113 20.7605C103.748 20.9501 103.338 21.04 102.926 21.0211C102.635 21.0511 102.341 21.0204 102.063 20.9308C101.785 20.8412 101.529 20.6948 101.311 20.501C101.094 20.3072 100.92 20.0703 100.8 19.8056C100.68 19.5409 100.618 19.2543 100.617 18.9642ZM105.07 18.3769V17.8023L103.378 17.9097C102.424 17.973 101.991 18.295 101.991 18.9009C101.991 19.5194 102.532 19.8794 103.276 19.8794C103.494 19.9013 103.714 19.8795 103.923 19.8152C104.133 19.751 104.327 19.6456 104.494 19.5054C104.661 19.3653 104.799 19.1931 104.897 18.9992C104.996 18.8054 105.055 18.5937 105.07 18.3769Z" fill="white"/>
<path d="M108.228 17.468C108.228 15.2963 109.353 13.9205 111.103 13.9205C111.536 13.9007 111.966 14.0036 112.342 14.2171C112.718 14.4307 113.026 14.746 113.228 15.1263H113.33V11.3516H114.697V20.9074H113.387V19.8216H113.279C113.061 20.1993 112.743 20.5107 112.36 20.7221C111.976 20.9335 111.542 21.0367 111.103 21.0207C109.341 21.0208 108.228 19.645 108.228 17.468ZM109.64 17.468C109.64 18.9258 110.333 19.803 111.491 19.803C112.643 19.803 113.356 18.9131 113.356 17.474C113.356 16.0416 112.636 15.1391 111.491 15.1391C110.34 15.1391 109.64 16.0222 109.64 17.468H109.64Z" fill="white"/>
<path d="M120.354 17.4684C120.31 17.0167 120.362 16.561 120.507 16.1305C120.651 15.7 120.885 15.3041 121.192 14.9684C121.5 14.6326 121.875 14.3643 122.293 14.1808C122.711 13.9972 123.163 13.9023 123.621 13.9023C124.078 13.9023 124.53 13.9972 124.949 14.1808C125.367 14.3643 125.742 14.6326 126.049 14.9684C126.357 15.3041 126.591 15.7 126.735 16.1305C126.879 16.561 126.931 17.0167 126.888 17.4684C126.932 17.9205 126.881 18.3769 126.737 18.8081C126.593 19.2393 126.359 19.6359 126.052 19.9723C125.744 20.3087 125.369 20.5776 124.95 20.7615C124.532 20.9455 124.079 21.0405 123.621 21.0405C123.163 21.0405 122.71 20.9455 122.291 20.7615C121.873 20.5776 121.498 20.3087 121.19 19.9723C120.882 19.6359 120.649 19.2393 120.505 18.8081C120.361 18.3769 120.309 17.9205 120.354 17.4684ZM125.482 17.4684C125.482 15.9786 124.807 15.1074 123.623 15.1074C122.435 15.1074 121.766 15.9786 121.766 17.4684C121.766 18.9701 122.435 19.8346 123.623 19.8346C124.807 19.8346 125.482 18.9642 125.482 17.4684Z" fill="white"/>
<path d="M128.722 14.0349H130.038V15.1268H130.14C130.314 14.7346 130.606 14.4059 130.977 14.1864C131.347 13.9669 131.778 13.8676 132.208 13.9023C132.545 13.8771 132.883 13.9276 133.198 14.0498C133.513 14.1721 133.796 14.363 134.026 14.6085C134.256 14.854 134.428 15.1478 134.528 15.468C134.629 15.7883 134.655 16.1268 134.606 16.4585V20.9078H133.238V16.7992C133.238 15.6947 132.755 15.1454 131.744 15.1454C131.515 15.1348 131.286 15.1735 131.074 15.2587C130.861 15.3439 130.67 15.4737 130.513 15.6391C130.356 15.8045 130.237 16.0017 130.164 16.2171C130.09 16.4325 130.065 16.6611 130.089 16.8871V20.9078H128.722V14.0349Z" fill="white"/>
<path d="M142.331 12.3232V14.0657H143.832V15.2082H142.331V18.7423C142.331 19.4622 142.63 19.7774 143.311 19.7774C143.485 19.7769 143.659 19.7664 143.832 19.7461V20.876C143.586 20.9195 143.338 20.9427 143.088 20.9453C141.568 20.9453 140.962 20.4146 140.962 19.0896V15.2081H139.863V14.0656H140.962V12.3232H142.331Z" fill="white"/>
<path d="M145.699 11.3516H147.055V15.139H147.163C147.344 14.7432 147.645 14.4126 148.023 14.1923C148.401 13.972 148.838 13.8727 149.275 13.9079C149.61 13.8897 149.946 13.9453 150.257 14.0705C150.568 14.1957 150.847 14.3875 151.075 14.6323C151.303 14.877 151.474 15.1686 151.575 15.4863C151.676 15.804 151.706 16.1399 151.661 16.4701V20.9074H150.292V16.8047C150.292 15.7069 149.777 15.1509 148.811 15.1509C148.576 15.1318 148.34 15.1639 148.118 15.2448C147.897 15.3258 147.696 15.4538 147.53 15.6197C147.364 15.7857 147.237 15.9857 147.156 16.2057C147.076 16.4257 147.046 16.6604 147.067 16.8934V20.9074H145.699L145.699 11.3516Z" fill="white"/>
<path d="M159.633 19.0513C159.447 19.6794 159.045 20.2228 158.496 20.5863C157.947 20.9498 157.287 21.1103 156.631 21.0397C156.175 21.0516 155.721 20.9649 155.302 20.7855C154.882 20.6061 154.508 20.3384 154.203 20.0009C153.899 19.6633 153.672 19.2641 153.538 18.8309C153.405 18.3977 153.368 17.9409 153.431 17.4922C153.37 17.0421 153.407 16.5843 153.54 16.1498C153.674 15.7153 153.899 15.3143 154.202 14.9738C154.505 14.6333 154.878 14.3613 155.296 14.1763C155.714 13.9913 156.167 13.8976 156.625 13.9015C158.552 13.9015 159.715 15.208 159.715 17.3662V17.8395H154.824V17.9155C154.802 18.1677 154.834 18.4216 154.917 18.6609C155.001 18.9001 155.133 19.1195 155.307 19.3048C155.481 19.4902 155.692 19.6375 155.926 19.7374C156.16 19.8372 156.413 19.8873 156.668 19.8845C156.996 19.9234 157.327 19.865 157.62 19.7166C157.914 19.5683 158.156 19.3367 158.317 19.0513L159.633 19.0513ZM154.823 16.8364H158.323C158.34 16.6057 158.308 16.374 158.23 16.1562C158.151 15.9383 158.028 15.7392 157.867 15.5715C157.707 15.4038 157.513 15.2713 157.297 15.1825C157.082 15.0937 156.85 15.0506 156.617 15.0559C156.381 15.053 156.146 15.097 155.927 15.1855C155.708 15.2739 155.509 15.4049 155.342 15.5709C155.175 15.7368 155.043 15.9343 154.954 16.1516C154.865 16.3689 154.82 16.6018 154.824 16.8364H154.823Z" fill="white"/>
</g>
<defs>
<clipPath id="clip0_1_107">
<rect width="180" height="58" rx="9" fill="white"/>
</clipPath>
</defs>
</svg>
