<svg width="24" height="24" viewBox="0 0 24 24" fill="none" xmlns="http://www.w3.org/2000/svg">
<path d="M23 5C23 2.79086 21.2091 1 19 1L5.00002 1.00001C2.79089 1.00001 1.00002 2.79087 1.00002 5.00001L1 19C1 21.2091 2.79086 23 5 23H19C21.2091 23 23 21.2091 23 19V5ZM21.24 18.24C21.24 19.8968 19.8968 21.24 18.24 21.24H16.1772V14.4805H19.0372L19.4662 11.1612H16.1772V9.04099C16.1772 8.07849 16.444 7.424 17.8217 7.424H19.579V4.45399C19.2737 4.41274 18.2315 4.32199 17.016 4.32199C14.4805 4.32199 12.7452 5.87024 12.7452 8.71099V11.1585H9.87973V14.4777H12.748V21.24H5.75998C4.10312 21.24 2.75998 19.8968 2.75998 18.24V5.76C2.75998 4.10314 4.10313 2.75999 5.75998 2.75999H18.24C19.8968 2.75999 21.24 4.10314 21.24 5.75999V18.24Z" fill="white"/>
</svg>
