<svg width="1024" height="1024" viewBox="0 0 1024 1024" fill="none" xmlns="http://www.w3.org/2000/svg">
<rect width="1024" height="1024" fill="#7B46AC"/>
<g opacity="0.15">
<path d="M648.828 390.621C648.828 469.845 584.604 534.069 505.379 534.069C426.155 534.069 361.931 469.845 361.931 390.621C361.931 311.396 426.155 247.172 505.379 247.172C584.604 247.172 648.828 311.396 648.828 390.621Z" fill="white"/>
<path d="M521.362 502.362C508.234 508.635 493.535 512.147 478.015 512.147C462.719 512.147 448.221 508.736 435.238 502.632V658.729C435.238 682.512 454.517 701.791 478.3 701.791C502.083 701.791 521.362 682.512 521.362 658.729V502.362Z" fill="white"/>
<path d="M556.65 458.097C563.948 444.157 568.076 428.296 568.076 411.47C568.076 398.776 565.727 386.631 561.439 375.446C564.492 374.759 567.668 374.397 570.928 374.397C604.637 374.397 635.454 387.175 658.708 408.18C681.896 387.185 712.654 374.397 746.399 374.397C818.581 374.397 877.097 432.912 877.097 505.094V505.119L876.925 657.879C876.899 681.662 857.598 700.92 833.815 700.893C810.033 700.866 790.775 681.565 790.801 657.783L790.972 505.094V505.079C790.964 480.469 771.011 460.521 746.399 460.521C721.781 460.521 701.825 480.477 701.825 505.094V657.831C701.825 681.614 682.546 700.893 658.763 700.893C634.981 700.893 615.701 681.614 615.701 657.831L615.701 505.094C615.701 480.605 595.673 460.521 570.928 460.521C565.923 460.521 561.118 459.667 556.65 458.097Z" fill="white"/>
<path fill-rule="evenodd" clip-rule="evenodd" d="M239.355 458.817C207.677 458.817 182.034 484.478 182.034 516.087C182.034 547.696 207.677 573.357 239.355 573.357C271.033 573.357 296.676 547.696 296.676 516.087C296.676 484.478 271.033 458.817 239.355 458.817ZM182.034 647.574C199.591 655.233 218.978 659.481 239.355 659.481C318.557 659.481 382.8 595.302 382.8 516.087C382.8 436.872 318.557 372.693 239.355 372.693C160.153 372.693 95.9097 436.872 95.9097 516.087V658.158C95.9097 681.94 115.189 701.22 138.972 701.22C162.754 701.22 182.034 681.94 182.034 658.158V647.574Z" fill="white"/>
</g>
<ellipse cx="506.272" cy="388.683" rx="59.0449" ry="59.0449" fill="white"/>
<path d="M549.606 487.691C536.336 493.507 521.674 496.734 506.258 496.734C491.063 496.734 476.6 493.599 463.481 487.939V635.902C463.481 659.685 482.761 678.964 506.543 678.964C530.326 678.964 549.606 659.685 549.606 635.902V487.691Z" fill="white"/>
<path d="M602.819 437.857C610.327 423.071 614.559 406.341 614.559 388.622C614.559 375.734 612.32 363.369 608.209 351.894C638.372 353.956 665.793 366.257 686.951 385.369C710.14 364.375 740.898 351.586 774.643 351.586C846.825 351.586 905.34 410.102 905.34 482.284V482.308L905.169 635.069C905.143 658.851 885.841 678.109 862.059 678.083C838.276 678.056 819.018 658.755 819.045 634.972L819.216 482.284V482.269C819.208 457.659 799.255 437.71 774.643 437.71C750.025 437.71 730.069 457.667 730.069 482.284V635.021C730.069 658.803 710.79 678.083 687.007 678.083C663.224 678.083 643.945 658.803 643.945 635.021V482.284C643.945 459.009 625.855 439.715 602.819 437.857Z" fill="white"/>
<path fill-rule="evenodd" clip-rule="evenodd" d="M267.601 435.986C235.922 435.986 210.28 461.648 210.28 493.256C210.28 524.865 235.922 550.526 267.601 550.526C299.279 550.526 324.922 524.865 324.922 493.256C324.922 461.648 299.279 435.986 267.601 435.986ZM210.28 624.743C227.837 632.402 247.224 636.651 267.601 636.651C346.803 636.651 411.046 572.472 411.046 493.256C411.046 414.041 346.803 349.862 267.601 349.862C188.399 349.862 124.155 414.041 124.155 493.256V635.327C124.155 659.109 143.435 678.389 167.217 678.389C191 678.389 210.28 659.109 210.28 635.327V624.743Z" fill="white"/>
</svg>
