<svg width="48" height="48" viewBox="0 0 48 48" fill="none" xmlns="http://www.w3.org/2000/svg">
<path d="M7.11805 25.9127L6.94808 26.15H7.24H26.76H27.0519L26.882 25.9127C25.747 24.3278 23.9797 23.3135 22.1531 22.6954C20.3253 22.0769 18.4238 21.85 17 21.85C15.5762 21.85 13.6747 22.0769 11.8469 22.6954C10.0203 23.3135 8.25303 24.3278 7.11805 25.9127ZM35.85 10V10.15H36H45.8343L42.5511 43.0418C42.551 43.0424 42.551 43.043 42.5509 43.0435C42.3588 44.6116 41.0395 45.85 39.44 45.85H36.15V42.15H38.78H38.9157L38.9293 42.0149L41.7293 14.0149L41.7458 13.85H41.58H22.5937L22.1682 10.15H32H32.15V10V2.15H35.85V10ZM4 45.85C2.98381 45.85 2.15 44.9981 2.15 44V42.15H31.85V44C31.85 44.9991 31.0352 45.85 30 45.85H4ZM2.15089 29.85C2.1971 25.9789 4.03228 23.0722 6.77443 21.1222C9.55635 19.144 13.2741 18.15 17 18.15C20.7259 18.15 24.4437 19.144 27.2256 21.1222C29.9677 23.0722 31.8029 25.9789 31.8491 29.85H2.15089ZM31.85 34.15V37.85H2.15V34.15H31.85Z" fill="#7B46AC" stroke="white" stroke-width="0.3"/>
</svg>
