<svg width="58" height="58" viewBox="0 0 58 58" fill="none" xmlns="http://www.w3.org/2000/svg">
<path d="M18 1H40" stroke="#212121" stroke-width="2"/>
<path d="M18 57L40 57" stroke="#212121" stroke-width="2"/>
<path d="M56.9998 40L56.9998 17.9999" stroke="#212121" stroke-width="2"/>
<path d="M0.999999 40L1 18" stroke="#212121" stroke-width="2"/>
<path d="M0.999879 16L0.999879 11C0.999879 5.47712 5.47703 0.999974 10.9999 0.999973L16.1531 0.999973" stroke="#212121" stroke-width="2"/>
<path d="M1 42L1 46.9999C1 52.5228 5.47715 56.9999 11 56.9999L16 56.9999" stroke="#212121" stroke-width="2"/>
<path d="M56.9998 42L56.9998 47C56.9998 52.5228 52.5227 57 46.9998 57L41.9999 57" stroke="#212121" stroke-width="2"/>
<path d="M56.9998 16.0244L56.9998 11C56.9998 5.47719 52.5226 1.00004 46.9998 1.00004L41.9754 1.00004" stroke="#212121" stroke-width="2"/>
<path d="M44.62 5H13C8.58172 5 5 8.58172 5 13V44.62C5 49.0383 8.58172 52.62 13 52.62H44.62C49.0383 52.62 52.62 49.0383 52.62 44.62V13C52.62 8.58172 49.0383 5 44.62 5Z" fill="#212121"/>
<path d="M40.3199 23.0288L42.2374 25.811C42.3341 25.9399 42.3864 26.0966 42.3864 26.2578V40.5798C42.3864 41.5043 41.6369 42.2539 40.7123 42.2539H34.2642H27.8162C26.8916 42.2539 26.1421 41.5044 26.1421 40.5798H27.4871C27.9322 40.5798 28.359 40.4025 28.6731 40.0872L39.3952 29.3253C39.5123 29.2079 39.5867 29.0547 39.6068 28.8901L40.3199 23.0288Z" fill="white"/>
<path fill-rule="evenodd" clip-rule="evenodd" d="M37.532 18.8048L37.01 19.3268C36.7146 19.6222 36.7202 20.1028 37.0225 20.3912L37.1393 20.5027C37.451 20.8 37.4458 21.2991 37.128 21.5899L36.8629 21.8326C36.5715 22.0992 36.1226 22.0918 35.8402 21.8156L33.1528 19.187C32.851 18.8918 32.855 18.4049 33.1616 18.1147L33.3885 17.8999C33.6763 17.6276 34.127 17.6285 34.4136 17.902L34.7016 18.1767C34.994 18.4557 35.4556 18.4503 35.7413 18.1646L36.3159 17.59L34.8622 16.1504C34.6968 15.9866 34.4643 15.9097 34.2337 15.9425L27.0094 16.9715C26.8499 16.9942 26.7021 17.0681 26.5882 17.182L16.4611 27.3092C15.8073 27.9629 15.8073 29.0229 16.4611 29.6767L21.0205 34.2362L25.5799 38.7956C26.2337 39.4494 27.2937 39.4494 27.9475 38.7956L38.0747 28.6684C38.1886 28.5545 38.2625 28.4067 38.2852 28.2472L39.3142 21.0229C39.347 20.7924 39.2701 20.5599 39.1062 20.3944L37.532 18.8048Z" fill="white"/>
<path d="M37.394 17.6219C37.5088 17.7367 37.695 17.7367 37.8099 17.6219L39.4375 15.9942C39.5524 15.8794 39.5524 15.6932 39.4375 15.5783C39.3227 15.4635 39.1365 15.4635 39.0216 15.5783L37.394 17.206C37.2792 17.3208 37.2792 17.507 37.394 17.6219Z" fill="white"/>
</svg>
