<svg width="56" height="56" viewBox="0 0 56 56" fill="none" xmlns="http://www.w3.org/2000/svg">
<g clip-path="url(#clip0_1_260)">
<path d="M22.6965 0H4C1.79086 0 0 1.79086 0 4V22.6965C0 24.9056 1.79086 26.6965 4 26.6965H22.6965C24.9056 26.6965 26.6965 24.9056 26.6965 22.6965V4C26.6965 1.79086 24.9056 0 22.6965 0Z" fill="#212121"/>
<path d="M19.8007 10.1069L20.8757 11.6667C20.9299 11.7389 20.9592 11.8268 20.9592 11.9171V19.9462C20.9592 20.4646 20.539 20.8848 20.0207 20.8848H16.4058H12.791C12.2726 20.8848 11.8524 20.4646 11.8524 19.9462H12.6065C12.856 19.9462 13.0952 19.8469 13.2713 19.6701L19.2823 13.6369C19.3479 13.571 19.3897 13.4851 19.4009 13.3928L19.8007 10.1069Z" fill="white"/>
<path fill-rule="evenodd" clip-rule="evenodd" d="M18.238 7.73917L17.9453 8.03182C17.7797 8.19742 17.7829 8.46689 17.9523 8.62855L18.0178 8.69104C18.1925 8.85774 18.1896 9.13751 18.0115 9.30055L17.8628 9.43662C17.6995 9.58611 17.4478 9.58193 17.2895 9.4271L15.7829 7.95345C15.6137 7.78795 15.616 7.51499 15.7879 7.35228L15.9151 7.23189C16.0764 7.07922 16.3291 7.07974 16.4898 7.23306L16.6512 7.38709C16.8151 7.54349 17.0739 7.54046 17.2341 7.38026L17.5562 7.05815L16.7413 6.25111C16.6485 6.15928 16.5181 6.11614 16.3889 6.13454L12.3389 6.71141C12.2494 6.72413 12.1666 6.76556 12.1027 6.82941L6.42529 12.5069C6.05876 12.8734 6.05876 13.4676 6.42529 13.8342L8.98137 16.3902L11.5375 18.9463C11.904 19.3129 12.4982 19.3129 12.8648 18.9463L18.5422 13.2689C18.6061 13.205 18.6475 13.1222 18.6602 13.0327L19.2371 8.9827C19.2555 8.85349 19.2123 8.72311 19.1205 8.63035L18.238 7.73917Z" fill="white"/>
<path d="M18.1605 7.07576C18.2249 7.14013 18.3292 7.14013 18.3936 7.07576L19.3061 6.16328C19.3705 6.09889 19.3705 5.9945 19.3061 5.93013C19.2417 5.86574 19.1373 5.86574 19.0729 5.93013L18.1605 6.84261C18.0961 6.90698 18.0961 7.01137 18.1605 7.07576Z" fill="white"/>
<path d="M19.8007 10.1069L20.8757 11.6667C20.9299 11.7389 20.9592 11.8268 20.9592 11.9171V19.9462C20.9592 20.4646 20.539 20.8848 20.0207 20.8848H16.4058H12.791C12.2726 20.8848 11.8524 20.4646 11.8524 19.9462H12.6065C12.856 19.9462 13.0952 19.8469 13.2713 19.6701L19.2823 13.6369C19.3479 13.571 19.3897 13.4851 19.4009 13.3928L19.8007 10.1069Z" fill="white"/>
<path fill-rule="evenodd" clip-rule="evenodd" d="M18.238 7.73917L17.9453 8.03182C17.7797 8.19742 17.7829 8.46689 17.9523 8.62855L18.0178 8.69104C18.1925 8.85774 18.1896 9.13751 18.0115 9.30055L17.8628 9.43662C17.6995 9.58611 17.4478 9.58193 17.2895 9.4271L15.7829 7.95345C15.6137 7.78795 15.616 7.51499 15.7879 7.35228L15.9151 7.23189C16.0764 7.07922 16.3291 7.07974 16.4898 7.23306L16.6512 7.38709C16.8151 7.54349 17.0739 7.54046 17.2341 7.38026L17.5562 7.05815L16.7413 6.25111C16.6485 6.15928 16.5181 6.11614 16.3889 6.13454L12.3389 6.71141C12.2494 6.72413 12.1666 6.76556 12.1027 6.82941L6.42529 12.5069C6.05876 12.8734 6.05876 13.4676 6.42529 13.8342L8.98137 16.3902L11.5375 18.9463C11.904 19.3129 12.4982 19.3129 12.8648 18.9463L18.5422 13.2689C18.6061 13.205 18.6475 13.1222 18.6602 13.0327L19.2371 8.9827C19.2555 8.85349 19.2123 8.72311 19.1205 8.63035L18.238 7.73917Z" fill="white"/>
<path d="M18.1605 7.07576C18.2249 7.14013 18.3292 7.14013 18.3936 7.07576L19.3061 6.16328C19.3705 6.09889 19.3705 5.9945 19.3061 5.93013C19.2417 5.86574 19.1373 5.86574 19.0729 5.93013L18.1605 6.84261C18.0961 6.90698 18.0961 7.01137 18.1605 7.07576Z" fill="white"/>
<path d="M52.0001 0H33.3036C31.0944 0 29.3036 1.79086 29.3036 4V22.6965C29.3036 24.9056 31.0944 26.6965 33.3036 26.6965H52.0001C54.2092 26.6965 56.0001 24.9056 56.0001 22.6965V4C56.0001 1.79086 54.2092 0 52.0001 0Z" fill="#212121"/>
<path d="M37.3289 22.3687C36.3468 22.3687 36.1312 21.6409 36.2159 20.9416C36.4123 19.3199 36.5132 19.2442 36.6743 18.1522C36.8158 17.1914 36.9272 16.6553 37.0015 15.6871C37.1044 14.3483 37.0015 12.249 37.0015 12.249C37.0015 12.249 35.4302 11.7949 35.4302 8.94068C35.4302 6.08645 37.3289 6.08643 37.3289 6.08643C37.3289 6.08643 39.2276 6.08645 39.2276 8.94068C39.2276 11.7949 37.6564 12.249 37.6564 12.249C37.6564 12.249 37.5534 14.3483 37.6564 15.6871C37.7307 16.6553 37.842 17.1914 37.9835 18.1522C38.1447 19.2442 38.2456 19.3199 38.4419 20.9416C38.5266 21.6409 38.311 22.3687 37.3289 22.3687Z" fill="white"/>
<path d="M48.7727 22.2271C47.7921 22.2271 47.4832 21.5786 47.6615 20.8004C47.825 20.087 48.5273 19.1611 48.7727 18.0117C48.9739 17.069 49.0141 16.5165 48.9512 15.5474C48.8584 14.1121 47.8187 13.5395 47.6615 12.1102C47.4897 10.5488 48.3618 7.98098 49.0639 6.22511C49.2492 5.76116 49.8841 5.89693 49.8841 6.39661V20.8004C49.9101 21.4489 49.7532 22.2271 48.7727 22.2271Z" fill="white"/>
<path d="M43.4206 22.3403C42.4385 22.3403 42.2229 21.6128 42.3076 20.9137C42.5039 19.2926 42.6048 19.217 42.7659 18.1253C42.9075 17.1649 43.0188 16.6289 43.0931 15.6611C43.1961 14.3228 43.0931 12.2242 43.0931 12.2242C43.0931 12.2242 41.5219 11.7703 41.5219 8.91706C41.5219 7.93075 41.7487 6.53865 42.0456 6.11635V9.69399C42.0456 9.83793 42.1624 9.9546 42.3063 9.9546C42.4513 9.9546 42.5686 9.83681 42.5691 9.69188C42.5702 9.29868 42.5803 8.54597 42.6348 8.00922C42.7117 7.25534 42.9623 6.08643 42.9623 6.08643C42.9623 6.08643 43.133 7.25706 43.1588 8.00922C43.176 8.51633 43.1411 9.21382 43.1158 9.62121C43.1046 9.80135 43.2475 9.9546 43.4279 9.9546C43.6031 9.9546 43.7436 9.81009 43.7397 9.63505C43.7311 9.2297 43.7217 8.52183 43.748 8.00922C43.7866 7.25547 43.9443 6.08643 43.9443 6.08643C43.9443 6.08643 44.1425 7.25713 44.2064 8.00922C44.252 8.54732 44.2658 9.30067 44.27 9.69329C44.2715 9.83788 44.3889 9.9546 44.5335 9.9546C44.6782 9.9546 44.7956 9.83728 44.7956 9.69259V6.08643C45.0925 6.50872 45.3193 7.93075 45.3193 8.91706C45.3193 11.7703 43.748 12.2242 43.748 12.2242C43.748 12.2242 43.6453 14.3228 43.748 15.6611C43.8223 16.6289 43.9337 17.1649 44.0755 18.1253C44.2363 19.217 44.3372 19.2926 44.5338 20.9137C44.6183 21.6128 44.4027 22.3403 43.4206 22.3403Z" fill="white"/>
<path d="M22.6965 29.3037H4C1.79086 29.3037 0 31.0946 0 33.3037V52.0002C0 54.2093 1.79086 56.0002 4 56.0002H22.6965C24.9056 56.0002 26.6965 54.2093 26.6965 52.0002V33.3037C26.6965 31.0946 24.9056 29.3037 22.6965 29.3037Z" fill="#212121"/>
<path d="M16.3257 46.3155C16.3738 46.4993 16.1709 46.6466 16.0111 46.5437L13.3557 44.8347L10.7003 46.5437C10.5404 46.6466 10.3375 46.4993 10.3856 46.3155L11.187 43.253L8.74612 41.2612C8.59906 41.1413 8.67576 40.903 8.86524 40.8915L12.0198 40.6981L13.1614 37.7722C13.2304 37.5951 13.4809 37.5951 13.55 37.7722L14.6916 40.6981L17.8461 40.8915C18.0356 40.903 18.1123 41.1413 17.9652 41.2612L15.5244 43.253L16.3257 46.3155ZM20.2955 42.6623C20.2955 41.6976 21.0762 40.9241 22.0304 40.9241V37.4481C22.0304 36.4835 21.2497 35.71 20.2955 35.71H6.41587C5.95572 35.71 5.51442 35.893 5.18905 36.2191C4.86369 36.545 4.68091 36.9869 4.68091 37.4481V40.9241C5.64381 40.9241 6.41587 41.7062 6.41587 42.6623C6.41587 43.1232 6.23306 43.5651 5.90769 43.8912C5.58233 44.2171 5.14103 44.4001 4.68091 44.4001V47.8764C4.68091 48.3373 4.86369 48.7792 5.18905 49.1054C5.51442 49.4313 5.95572 49.6143 6.41587 49.6143H20.2955C20.7556 49.6143 21.1969 49.4313 21.5223 49.1054C21.8476 48.7792 22.0304 48.3373 22.0304 47.8764V44.4001C21.5703 44.4001 21.129 44.2171 20.8036 43.8912C20.4783 43.5651 20.2955 43.1232 20.2955 42.6623Z" fill="white"/>
<path d="M52.0001 29.3037H33.3036C31.0944 29.3037 29.3036 31.0946 29.3036 33.3037V52.0002C29.3036 54.2093 31.0944 56.0002 33.3036 56.0002H52.0001C54.2092 56.0002 56.0001 54.2093 56.0001 52.0002V33.3037C56.0001 31.0946 54.2092 29.3037 52.0001 29.3037Z" fill="#212121"/>
<path d="M35.3293 44.1743H37.4377V44.9721H34.3365V40.1531H35.3293V44.1743ZM41.7732 42.6718C41.7732 43.1461 41.6893 43.5622 41.5216 43.9196C41.354 44.277 41.1134 44.5528 40.8003 44.7471C40.489 44.9413 40.1316 45.0383 39.7277 45.0383C39.3283 45.0383 38.9719 44.9423 38.6588 44.7502C38.3454 44.5583 38.1027 44.2848 37.9307 43.9295C37.7586 43.5721 37.6713 43.1617 37.6692 42.6982V42.4599C37.6692 41.9857 37.7542 41.5685 37.9239 41.2087C38.096 40.8469 38.3376 40.57 38.6489 40.3781C38.962 40.1839 39.3194 40.0869 39.7212 40.0869C40.1227 40.0869 40.4791 40.1839 40.7901 40.3781C41.1035 40.57 41.3451 40.8469 41.5151 41.2087C41.6872 41.5685 41.7732 41.9843 41.7732 42.4567V42.6718ZM40.7672 42.4534C40.7672 41.9481 40.6767 41.5641 40.4958 41.3016C40.3148 41.039 40.0565 40.9076 39.7212 40.9076C39.388 40.9076 39.131 41.038 38.95 41.2982C38.7691 41.5563 38.6776 41.9359 38.6752 42.4367V42.6718C38.6752 43.1638 38.7657 43.5455 38.9466 43.8169C39.1276 44.0883 39.388 44.2241 39.7277 44.2241C40.0609 44.2241 40.3169 44.094 40.4958 43.8335C40.6743 43.571 40.7648 43.1891 40.7672 42.6883V42.4534ZM46.3239 44.363C46.145 44.5771 45.8924 44.7437 45.566 44.8628C45.2393 44.9799 44.8775 45.0383 44.4804 45.0383C44.0633 45.0383 43.697 44.9478 43.3815 44.7669C43.0682 44.5836 42.8254 44.319 42.6534 43.9725C42.4834 43.626 42.3963 43.2191 42.3919 42.7511V42.4236C42.3919 41.9426 42.4724 41.5265 42.6336 41.1756C42.7968 40.8226 43.0306 40.5536 43.3351 40.3682C43.6417 40.1805 44.0005 40.0869 44.4108 40.0869C44.9823 40.0869 45.4291 40.2235 45.7514 40.4973C46.0733 40.7687 46.2642 41.1647 46.3239 41.6856H45.3574C45.3134 41.4097 45.2151 41.2077 45.0628 41.0797C44.9127 40.9517 44.7054 40.8878 44.4405 40.8878C44.1029 40.8878 43.8459 41.0148 43.6694 41.2684C43.4929 41.5221 43.4034 41.8996 43.4013 42.4004V42.7081C43.4013 43.2136 43.4973 43.5953 43.6892 43.8534C43.8813 44.1115 44.1626 44.2405 44.5333 44.2405C44.9062 44.2405 45.1721 44.1613 45.3308 44.0022V43.1716H44.4272V42.4401H46.3239V44.363ZM51.1063 42.6718C51.1063 43.1461 51.0224 43.5622 50.8547 43.9196C50.6868 44.277 50.4464 44.5528 50.1331 44.7471C49.8221 44.9413 49.4646 45.0383 49.0608 45.0383C48.6614 45.0383 48.305 44.9423 47.9916 44.7502C47.6783 44.5583 47.4355 44.2848 47.2635 43.9295C47.0914 43.5721 47.0043 43.1617 47.002 42.6982V42.4599C47.002 41.9857 47.087 41.5685 47.257 41.2087C47.429 40.8469 47.6707 40.57 47.9817 40.3781C48.2951 40.1839 48.6525 40.0869 49.054 40.0869C49.4558 40.0869 49.8121 40.1839 50.1232 40.3781C50.4365 40.57 50.6782 40.8469 50.8479 41.2087C51.02 41.5685 51.1063 41.9843 51.1063 42.4567V42.6718ZM50.1 42.4534C50.1 41.9481 50.0095 41.5641 49.8286 41.3016C49.6476 41.039 49.3895 40.9076 49.054 40.9076C48.7208 40.9076 48.4638 41.038 48.2828 41.2982C48.1019 41.5563 48.0104 41.9359 48.0083 42.4367V42.6718C48.0083 43.1638 48.0988 43.5455 48.2797 43.8169C48.4606 44.0883 48.7208 44.2241 49.0608 44.2241C49.394 44.2241 49.65 44.094 49.8286 43.8335C50.0074 43.571 50.0979 43.1891 50.1 42.6883V42.4534Z" fill="white"/>
</g>
<defs>
<clipPath id="clip0_1_260">
<rect width="56" height="56" fill="white"/>
</clipPath>
</defs>
</svg>
