<svg width="117" height="32" viewBox="0 0 117 32" fill="none" xmlns="http://www.w3.org/2000/svg">
<g opacity="0.05">
<path d="M32.3903 9.08333C32.3903 13.8238 28.48 17.6667 23.6564 17.6667C18.8328 17.6667 14.9225 13.8238 14.9225 9.08333C14.9225 4.34289 18.8328 0.5 23.6564 0.5C28.48 0.5 32.3903 4.34289 32.3903 9.08333Z" fill="white"/>
<path fill-rule="evenodd" clip-rule="evenodd" d="M61.7644 13.3394C60.2368 13.3394 58.9984 14.5564 58.9984 16.0577L58.9984 25.3722C58.9984 26.8225 57.8021 27.9982 56.3263 27.9982C54.8505 27.9982 53.6541 26.8225 53.6541 25.3722V16.0577C53.6541 11.6557 57.2852 8.08724 61.7644 8.08724C63.8556 8.08724 65.773 8.86717 67.2204 10.1505C68.6598 8.86837 70.5698 8.08724 72.6654 8.08724C77.1446 8.08724 80.7757 11.6557 80.7757 16.0577V16.0592L80.7651 25.3751C80.7634 26.8254 79.5657 27.9999 78.0899 27.9982C76.6141 27.9966 75.4191 26.8196 75.4208 25.3692L75.4314 16.0577V16.0568C75.4309 14.5559 74.1927 13.3394 72.6654 13.3394C71.1378 13.3394 69.8995 14.5564 69.8995 16.0577V25.3722C69.8995 26.8225 68.7031 27.9982 67.2273 27.9982C65.7515 27.9982 64.5551 26.8225 64.5551 25.3722V16.0577C64.5551 14.5719 63.3078 13.3394 61.7644 13.3394Z" fill="white"/>
<path fill-rule="evenodd" clip-rule="evenodd" d="M113.403 13.3394C111.875 13.3394 110.637 14.5564 110.637 16.0577V25.3722C110.637 26.8225 109.44 27.9982 107.965 27.9982C106.489 27.9982 105.292 26.8225 105.292 25.3722V16.0577C105.292 11.6557 108.923 8.08724 113.403 8.08724C114.878 8.08724 116.075 9.26298 116.075 10.7133C116.075 12.1637 114.878 13.3394 113.403 13.3394Z" fill="white"/>
<path d="M27.782 15.8906C26.9674 16.2732 26.0552 16.4873 25.0922 16.4873C24.143 16.4873 23.2433 16.2793 22.4377 15.9071V25.4265C22.4377 26.8768 23.6341 28.0526 25.1098 28.0526C26.5856 28.0526 27.782 26.8768 27.782 25.4265V15.8906Z" fill="white"/>
<path d="M30.6297 13.1916C31.0826 12.3415 31.3388 11.3742 31.3388 10.3481C31.3388 9.57399 31.193 8.83333 30.9269 8.15121C31.1163 8.10934 31.3134 8.08724 31.5157 8.08724C33.6075 8.08724 35.5198 8.86653 36.9628 10.1475C38.4017 8.86713 40.3104 8.08724 42.4043 8.08724C46.8835 8.08724 50.5146 11.6557 50.5146 16.0577V16.0592L50.504 25.3751C50.5024 26.8254 49.3046 27.9999 47.8288 27.9982C46.3531 27.9966 45.158 26.8196 45.1597 25.3692L45.1703 16.0577V16.0568C45.1698 14.5559 43.9316 13.3394 42.4043 13.3394C40.8767 13.3394 39.6384 14.5564 39.6384 16.0577V25.3722C39.6384 26.8225 38.442 27.9982 36.9662 27.9982C35.4904 27.9982 34.294 26.8225 34.294 25.3722L34.294 16.0577C34.294 14.5642 33.0512 13.3394 31.5157 13.3394C31.2052 13.3394 30.907 13.2874 30.6297 13.1916Z" fill="white"/>
<path fill-rule="evenodd" clip-rule="evenodd" d="M10.3154 13.2346C8.34963 13.2346 6.7584 14.7995 6.7584 16.7272C6.7584 18.6548 8.34963 20.2197 10.3154 20.2197C12.2811 20.2197 13.8724 18.6548 13.8724 16.7272C13.8724 14.7995 12.2811 13.2346 10.3154 13.2346ZM6.7584 24.7457C7.8479 25.2128 9.05092 25.4719 10.3154 25.4719C15.2302 25.4719 19.2167 21.558 19.2167 16.7272C19.2167 11.8963 15.2302 7.98242 10.3154 7.98242C5.4006 7.98242 1.41406 11.8963 1.41406 16.7272V25.3912C1.41406 26.8415 2.61043 28.0173 4.08623 28.0173C5.56203 28.0173 6.7584 26.8415 6.7584 25.3912V24.7457Z" fill="white"/>
<path fill-rule="evenodd" clip-rule="evenodd" d="M91.454 22.5963L100.349 17.495C102.153 16.4599 103.276 13.7261 101.383 11.6449C99.4385 9.50762 96.5538 8.19128 93.4711 8.19128C87.5949 8.19128 83.5256 12.8005 83.5256 18.2783C83.5256 23.9068 88.1685 28.4696 93.8958 28.4696C96.4024 28.4696 98.7076 27.5922 100.5 26.1356C101.638 25.2114 101.798 23.5561 100.857 22.4383C99.9168 21.3205 98.2324 21.1636 97.095 22.0877C96.2249 22.7947 95.1141 23.2174 93.8958 23.2174C93.0096 23.2174 92.1769 22.992 91.454 22.5963ZM93.4711 13.4435C90.9319 13.4435 89.0024 15.2714 88.8765 17.9934L95.8498 13.994C95.1318 13.6436 94.3174 13.4435 93.4711 13.4435Z" fill="white"/>
</g>
<ellipse cx="23.6762" cy="8.97399" rx="3.57469" ry="3.51305" fill="white"/>
<path fill-rule="evenodd" clip-rule="evenodd" d="M60.3503 11.9478C58.8227 11.9478 57.5843 13.1648 57.5843 14.6661L57.5843 23.9806C57.5843 25.4309 56.388 26.6067 54.9122 26.6067C53.4364 26.6067 52.24 25.4309 52.24 23.9806V14.6661C52.24 10.2641 55.8711 6.69564 60.3503 6.69564C62.4415 6.69564 64.3589 7.47557 65.8063 8.75893C67.2457 7.47677 69.1557 6.69564 71.2513 6.69564C75.7305 6.69564 79.3616 10.2641 79.3616 14.6661V14.6676L79.351 23.9835C79.3493 25.4339 78.1516 26.6083 76.6758 26.6067C75.2 26.605 74.005 25.428 74.0067 23.9776L74.0173 14.6661V14.6652C74.0168 13.1643 72.7786 11.9478 71.2513 11.9478C69.7237 11.9478 68.4854 13.1648 68.4854 14.6661V23.9806C68.4854 25.4309 67.289 26.6067 65.8132 26.6067C64.3374 26.6067 63.141 25.4309 63.141 23.9806V14.6661C63.141 13.1803 61.8937 11.9478 60.3503 11.9478Z" fill="white"/>
<path fill-rule="evenodd" clip-rule="evenodd" d="M111.989 11.9478C110.461 11.9478 109.223 13.1648 109.223 14.6661V23.9806C109.223 25.4309 108.026 26.6067 106.55 26.6067C105.075 26.6067 103.878 25.4309 103.878 23.9806V14.6661C103.878 10.2641 107.509 6.69564 111.989 6.69564C113.464 6.69564 114.661 7.87138 114.661 9.32173C114.661 10.7721 113.464 11.9478 111.989 11.9478Z" fill="white"/>
<path d="M26.3676 14.9964C25.5442 15.3511 24.6344 15.5479 23.6778 15.5479C22.7349 15.5479 21.8374 15.3567 21.0233 15.0115V24.0349C21.0233 25.4852 22.2197 26.661 23.6955 26.661C25.1713 26.661 26.3676 25.4852 26.3676 24.0349V14.9964Z" fill="white"/>
<path d="M29.6732 11.9143C30.1285 11.0248 30.3848 10.0201 30.3848 8.95651C30.3848 8.16323 30.2422 7.40269 29.9808 6.69828C30.0209 6.69652 30.0611 6.69564 30.1016 6.69564C32.1934 6.69564 34.1057 7.47493 35.5487 8.75587C36.9876 7.47553 38.8963 6.69564 40.9903 6.69564C45.4694 6.69564 49.1005 10.2641 49.1005 14.6661V14.6676L49.0899 23.9835C49.0883 25.4339 47.8906 26.6083 46.4148 26.6067C44.939 26.605 43.7439 25.428 43.7456 23.9776L43.7562 14.6661V14.6652C43.7557 13.1643 42.5175 11.9478 40.9903 11.9478C39.4627 11.9478 38.2243 13.1648 38.2243 14.6661L38.2243 23.9806C38.2243 25.4309 37.0279 26.6067 35.5521 26.6067C34.0763 26.6067 32.88 25.4309 32.88 23.9806L32.88 14.6661C32.88 13.1726 31.6371 11.9478 30.1016 11.9478C29.9558 11.9478 29.8127 11.9363 29.6732 11.9143Z" fill="white"/>
<path fill-rule="evenodd" clip-rule="evenodd" d="M8.90132 11.843C6.93557 11.843 5.34433 13.4079 5.34433 15.3356C5.34433 17.2632 6.93557 18.8281 8.90132 18.8281C10.8671 18.8281 12.4583 17.2632 12.4583 15.3356C12.4583 13.4079 10.8671 11.843 8.90132 11.843ZM5.34433 23.3541C6.43383 23.8212 7.63685 24.0803 8.90132 24.0803C13.8161 24.0803 17.8026 20.1664 17.8026 15.3356C17.8026 10.5047 13.8161 6.59082 8.90132 6.59082C3.98654 6.59082 5.40053e-07 10.5047 0 15.3356V23.9996C0 25.4499 1.19637 26.6257 2.67217 26.6257C4.14796 26.6257 5.34433 25.4499 5.34433 23.9996V23.3541Z" fill="white"/>
<path fill-rule="evenodd" clip-rule="evenodd" d="M90.0399 21.2048L98.9344 16.1035C100.739 15.0685 101.862 12.3346 99.9688 10.2534C98.0243 8.11615 95.1397 6.7998 92.057 6.7998C86.1808 6.7998 82.1115 11.409 82.1115 16.8868C82.1115 22.5153 86.7544 27.0781 92.4817 27.0781C94.9883 27.0781 97.2935 26.2008 99.0863 24.7441C100.224 23.82 100.383 22.1647 99.443 21.0469C98.5027 19.9291 96.8183 19.7721 95.6809 20.6962C94.8108 21.4032 93.7 21.8259 92.4817 21.8259C91.5955 21.8259 90.7628 21.6005 90.0399 21.2048ZM92.057 12.052C89.5178 12.052 87.5883 13.8799 87.4624 16.6019L94.4357 12.6025C93.7177 12.2521 92.9033 12.052 92.057 12.052Z" fill="white"/>
</svg>
