<svg width="46" height="30" viewBox="0 0 46 30" fill="none" xmlns="http://www.w3.org/2000/svg">
<g opacity="0.15">
<path d="M30.4828 8.36191C30.4828 12.6945 26.9706 16.2067 22.638 16.2067C18.3054 16.2067 14.7932 12.6945 14.7932 8.36191C14.7932 4.02934 18.3054 0.51709 22.638 0.51709C26.9706 0.51709 30.4828 4.02934 30.4828 8.36191Z" fill="white"/>
<path d="M23.512 14.4728C22.7941 14.8158 21.9902 15.0079 21.1415 15.0079C20.305 15.0079 19.5121 14.8213 18.8021 14.4876V23.0241C18.8021 24.3247 19.8565 25.379 21.1571 25.379C22.4577 25.379 23.512 24.3247 23.512 23.0241V14.4728Z" fill="white"/>
<path d="M25.4419 12.052C25.841 11.2897 26.0667 10.4223 26.0667 9.50211C26.0667 8.80791 25.9382 8.14372 25.7037 7.53202C25.8707 7.49447 26.0444 7.47466 26.2227 7.47466C28.0661 7.47466 29.7514 8.17349 31.0231 9.32218C32.2913 8.17403 33.9733 7.47466 35.8187 7.47466C39.7662 7.47466 42.9663 10.6747 42.9663 14.6222V14.6235L42.9569 22.9776C42.9555 24.2782 41.8999 25.3314 40.5993 25.3299C39.2987 25.3285 38.2455 24.2729 38.247 22.9723L38.2564 14.6222V14.6214C38.2559 13.2755 37.1647 12.1846 35.8187 12.1846C34.4725 12.1846 33.3811 13.2759 33.3811 14.6222V22.975C33.3811 24.2756 32.3268 25.3299 31.0262 25.3299C29.7256 25.3299 28.6712 24.2756 28.6712 22.975L28.6712 14.6222C28.6712 13.2829 27.5759 12.1846 26.2227 12.1846C25.949 12.1846 25.6862 12.1379 25.4419 12.052Z" fill="white"/>
<path fill-rule="evenodd" clip-rule="evenodd" d="M8.08978 12.0914C6.35738 12.0914 4.95504 13.4948 4.95504 15.2234C4.95504 16.952 6.35738 18.3553 8.08978 18.3553C9.82219 18.3553 11.2245 16.952 11.2245 15.2234C11.2245 13.4948 9.82219 12.0914 8.08978 12.0914ZM4.95504 22.414C5.9152 22.8329 6.97542 23.0652 8.08978 23.0652C12.4211 23.0652 15.9345 19.5554 15.9345 15.2234C15.9345 10.8913 12.4211 7.38148 8.08978 7.38148C3.75842 7.38148 0.245118 10.8913 0.245117 15.2234V22.9928C0.245117 24.2934 1.29947 25.3478 2.60008 25.3478C3.90069 25.3478 4.95504 24.2934 4.95504 22.9928V22.414Z" fill="white"/>
</g>
<ellipse cx="22.6867" cy="8.25587" rx="3.22902" ry="3.22902" fill="white"/>
<path d="M25.0566 13.6708C24.331 13.9889 23.5291 14.1654 22.6861 14.1654C21.8551 14.1654 21.0641 13.9939 20.3467 13.6844V21.7761C20.3467 23.0767 21.401 24.1311 22.7017 24.1311C24.0023 24.1311 25.0566 23.0767 25.0566 21.7761V13.6708Z" fill="white"/>
<path d="M27.9667 10.9455C28.3773 10.1369 28.6087 9.22198 28.6087 8.25301C28.6087 7.54818 28.4863 6.87195 28.2615 6.24443C29.9111 6.35717 31.4106 7.02992 32.5677 8.07511C33.8359 6.92696 35.5179 6.22759 37.3633 6.22759C41.3108 6.22759 44.5109 9.42765 44.5109 13.3751V13.3765L44.5015 21.7306C44.5001 23.0312 43.4445 24.0843 42.1439 24.0829C40.8433 24.0814 39.7901 23.0259 39.7916 21.7253L39.801 13.3751V13.3743C39.8005 12.0284 38.7093 10.9375 37.3633 10.9375C36.0171 10.9375 34.9257 12.0289 34.9257 13.3751V21.7279C34.9257 23.0285 33.8714 24.0829 32.5708 24.0829C31.2702 24.0829 30.2158 23.0285 30.2158 21.7279L30.2158 13.3751C30.2158 12.1023 29.2265 11.0471 27.9667 10.9455Z" fill="white"/>
<path fill-rule="evenodd" clip-rule="evenodd" d="M9.63447 10.8432C7.90206 10.8432 6.49972 12.2466 6.49972 13.9752C6.49972 15.7038 7.90206 17.1071 9.63447 17.1071C11.3669 17.1071 12.7692 15.7038 12.7692 13.9752C12.7692 12.2466 11.3669 10.8432 9.63447 10.8432ZM6.49972 21.1659C7.45989 21.5847 8.5201 21.8171 9.63447 21.8171C13.9658 21.8171 17.4791 18.3073 17.4791 13.9752C17.4791 9.6431 13.9658 6.1333 9.63447 6.1333C5.3031 6.1333 1.7898 9.6431 1.78979 13.9752V21.7447C1.78979 23.0453 2.84415 24.0996 4.14476 24.0996C5.44536 24.0996 6.49972 23.0453 6.49972 21.7447V21.1659Z" fill="white"/>
</svg>
