<svg width="24" height="24" viewBox="0 0 24 24" fill="none" xmlns="http://www.w3.org/2000/svg">
<ellipse cx="11.8896" cy="9.62775" rx="1.13849" ry="1.0965" fill="white"/>
<path d="M14.4004 10.2394C14.4509 10.0433 14.4777 9.83806 14.4777 9.62703C14.4777 9.6162 14.4776 9.60538 14.4775 9.59458C14.6875 9.6805 14.8792 9.79927 15.0454 9.94385L15.3739 10.2297L15.7022 9.94347C16.0601 9.63138 16.537 9.43924 17.0644 9.43924C18.1979 9.43924 19.0844 10.3195 19.0845 11.3663C19.0845 11.3663 19.0845 11.3663 19.0845 11.3664V11.3668L19.0812 14.2031C19.081 14.3511 18.9508 14.5027 18.7505 14.5025C18.5502 14.5023 18.4204 14.3504 18.4206 14.2025L18.4239 11.367V11.3664V11.3661V11.3659C18.4236 10.6153 17.7972 10.0386 17.0644 10.0386C16.3315 10.0386 15.7049 10.6155 15.7049 11.3664V14.2028C15.7049 14.3508 15.5749 14.5025 15.3746 14.5025C15.1743 14.5025 15.0443 14.3508 15.0443 14.2028V11.3664C15.0443 10.8834 14.7826 10.4713 14.4004 10.2394ZM6.37605 13.551L5.68237 13.2595V14.012V14.2085C5.68237 14.3565 5.55236 14.5082 5.35205 14.5082C5.15174 14.5082 5.02173 14.3565 5.02173 14.2085V11.5702C5.02173 10.393 6.01846 9.40723 7.28763 9.40723C8.55681 9.40723 9.55354 10.393 9.55354 11.5702C9.55354 12.7473 8.55681 13.7331 7.28763 13.7331C6.96209 13.7331 6.65405 13.6678 6.37605 13.551ZM11.8894 12.1347C12.0031 12.1347 12.1152 12.1276 12.2252 12.1137V14.2192C12.2252 14.3671 12.0952 14.5189 11.8949 14.5189C11.6946 14.5189 11.5646 14.3671 11.5646 14.2192V12.1151C11.6711 12.1281 11.7795 12.1347 11.8894 12.1347ZM7.28763 10.0066C6.41874 10.0066 5.68237 10.6893 5.68237 11.5702C5.68237 12.451 6.41874 13.1337 7.28763 13.1337C8.15653 13.1337 8.8929 12.451 8.8929 11.5702C8.8929 10.6893 8.15653 10.0066 7.28763 10.0066Z" stroke="white" stroke-linecap="round"/>
<rect x="1" y="1" width="22" height="22" rx="4" stroke="white" stroke-width="2"/>
</svg>
