<svg width="48" height="48" viewBox="0 0 48 48" fill="none" xmlns="http://www.w3.org/2000/svg">
<rect x="10.5" y="1.5" width="27" height="45" rx="4.5" stroke="#7B46AC" stroke-width="3"/>
<rect x="20" y="5" width="8" height="1" rx="0.5" fill="#7B46AC"/>
<rect x="22" y="39" width="4" height="4" rx="2" fill="#7B46AC"/>
<path d="M30.2 25.9C30.2 26.9933 29.8 27.9333 29 28.72C28.2 29.4933 27.0467 29.9733 25.54 30.16V32.4H23.54V30.22C22.5533 30.1667 21.6133 29.9933 20.72 29.7C19.8267 29.4067 19.1067 29.0467 18.56 28.62L19.66 26.18C20.1667 26.5533 20.76 26.8667 21.44 27.12C22.12 27.3733 22.82 27.5333 23.54 27.6V24.26C22.5933 24.0333 21.7933 23.78 21.14 23.5C20.4867 23.22 19.94 22.8133 19.5 22.28C19.06 21.7333 18.84 21.0133 18.84 20.12C18.84 19.0133 19.24 18.0667 20.04 17.28C20.8533 16.48 22.02 15.9933 23.54 15.82V13.6H25.54V15.78C27.18 15.9133 28.5333 16.32 29.6 17L28.6 19.46C27.6 18.8867 26.58 18.54 25.54 18.42V21.82C26.4733 22.0333 27.26 22.28 27.9 22.56C28.5533 22.8267 29.1 23.2333 29.54 23.78C29.98 24.3133 30.2 25.02 30.2 25.9ZM22.06 19.96C22.06 20.2933 22.1867 20.5667 22.44 20.78C22.6933 20.9933 23.06 21.1733 23.54 21.32V18.48C23.0333 18.6 22.66 18.7933 22.42 19.06C22.18 19.3133 22.06 19.6133 22.06 19.96ZM25.54 27.52C26.02 27.4133 26.38 27.24 26.62 27C26.86 26.76 26.98 26.4733 26.98 26.14C26.98 25.8067 26.8533 25.5333 26.6 25.32C26.36 25.1067 26.0067 24.92 25.54 24.76V27.52Z" fill="#7B46AC"/>
</svg>
