<svg width="48" height="48" viewBox="0 0 48 48" fill="none" xmlns="http://www.w3.org/2000/svg">
<path d="M8.91 2.05C9.19166 1.7207 9.54131 1.45633 9.9349 1.27507C10.3285 1.09381 10.7567 0.999971 11.19 1H36.81C37.2433 0.999971 37.6715 1.09381 38.0651 1.27507C38.4587 1.45633 38.8083 1.7207 39.09 2.05L46.917 11.182C47.6158 11.9975 48 13.036 48 14.11V14.875C48.0002 16.3599 47.5364 17.8078 46.6735 19.0163C45.8105 20.2247 44.5916 21.1334 43.187 21.6152C41.7825 22.0971 40.2624 22.1281 38.8394 21.7038C37.4164 21.2796 36.1614 20.4213 35.25 19.249C34.5844 20.1063 33.7315 20.7999 32.7565 21.2768C31.7815 21.7536 30.7103 22.001 29.625 22C28.5396 22.0012 27.4684 21.7539 26.4934 21.2771C25.5183 20.8002 24.6654 20.1065 24 19.249C23.3346 20.1065 22.4817 20.8002 21.5066 21.2771C20.5316 21.7539 19.4604 22.0012 18.375 22C17.2896 22.0012 16.2184 21.7539 15.2434 21.2771C14.2683 20.8002 13.4154 20.1065 12.75 19.249C11.8386 20.4213 10.5836 21.2796 9.16061 21.7038C7.73758 22.1281 6.21755 22.0971 4.81297 21.6152C3.4084 21.1334 2.18947 20.2247 1.32655 19.0163C0.463625 17.8078 -0.000163796 16.3599 4.33936e-08 14.875V14.11C3.78226e-05 13.036 0.38417 11.9975 1.083 11.182L8.913 2.047L8.91 2.05ZM14.25 14.875C14.25 15.969 14.6846 17.0182 15.4582 17.7918C16.2318 18.5654 17.281 19 18.375 19C19.469 19 20.5182 18.5654 21.2918 17.7918C22.0654 17.0182 22.5 15.969 22.5 14.875C22.5 14.4772 22.658 14.0956 22.9393 13.8143C23.2206 13.533 23.6022 13.375 24 13.375C24.3978 13.375 24.7794 13.533 25.0607 13.8143C25.342 14.0956 25.5 14.4772 25.5 14.875C25.5 15.969 25.9346 17.0182 26.7082 17.7918C27.4818 18.5654 28.531 19 29.625 19C30.719 19 31.7682 18.5654 32.5418 17.7918C33.3154 17.0182 33.75 15.969 33.75 14.875C33.75 14.4772 33.908 14.0956 34.1893 13.8143C34.4706 13.533 34.8522 13.375 35.25 13.375C35.6478 13.375 36.0294 13.533 36.3107 13.8143C36.592 14.0956 36.75 14.4772 36.75 14.875C36.75 15.969 37.1846 17.0182 37.9582 17.7918C38.7318 18.5654 39.781 19 40.875 19C41.969 19 43.0182 18.5654 43.7918 17.7918C44.5654 17.0182 45 15.969 45 14.875V14.11C45 13.7525 44.8724 13.4067 44.64 13.135L36.81 4H11.19L3.36 13.135C3.12764 13.4067 2.99997 13.7525 3 14.11V14.875C3 15.969 3.4346 17.0182 4.20818 17.7918C4.98177 18.5654 6.03098 19 7.125 19C8.21902 19 9.26823 18.5654 10.0418 17.7918C10.8154 17.0182 11.25 15.969 11.25 14.875C11.25 14.4772 11.408 14.0956 11.6893 13.8143C11.9706 13.533 12.3522 13.375 12.75 13.375C13.1478 13.375 13.5294 13.533 13.8107 13.8143C14.092 14.0956 14.25 14.4772 14.25 14.875ZM4.5 23.5C4.89782 23.5 5.27936 23.658 5.56066 23.9393C5.84196 24.2206 6 24.6022 6 25V43H42V25C42 24.6022 42.158 24.2206 42.4393 23.9393C42.7206 23.658 43.1022 23.5 43.5 23.5C43.8978 23.5 44.2794 23.658 44.5607 23.9393C44.842 24.2206 45 24.6022 45 25V43H46.5C46.8978 43 47.2794 43.158 47.5607 43.4393C47.842 43.7206 48 44.1022 48 44.5C48 44.8978 47.842 45.2794 47.5607 45.5607C47.2794 45.842 46.8978 46 46.5 46H1.5C1.10218 46 0.720644 45.842 0.43934 45.5607C0.158035 45.2794 4.33936e-08 44.8978 4.33936e-08 44.5C4.33936e-08 44.1022 0.158035 43.7206 0.43934 43.4393C0.720644 43.158 1.10218 43 1.5 43H3V25C3 24.6022 3.15804 24.2206 3.43934 23.9393C3.72064 23.658 4.10218 23.5 4.5 23.5ZM10.5 25C10.8978 25 11.2794 25.158 11.5607 25.4393C11.842 25.7206 12 26.1022 12 26.5V37H36V26.5C36 26.1022 36.158 25.7206 36.4393 25.4393C36.7206 25.158 37.1022 25 37.5 25C37.8978 25 38.2794 25.158 38.5607 25.4393C38.842 25.7206 39 26.1022 39 26.5V37C39 37.7957 38.6839 38.5587 38.1213 39.1213C37.5587 39.6839 36.7957 40 36 40H12C11.2044 40 10.4413 39.6839 9.87868 39.1213C9.31607 38.5587 9 37.7957 9 37V26.5C9 26.1022 9.15804 25.7206 9.43934 25.4393C9.72064 25.158 10.1022 25 10.5 25Z" fill="#7B46AC"/>
</svg>
