<svg width="219" height="161" viewBox="0 0 219 161" fill="none" xmlns="http://www.w3.org/2000/svg">
<path d="M63.4998 55.7025C65.7312 61.8696 53.8102 71.1335 37.54 78.039C21.2698 84.9445 6.27137 85.5431 4.04004 79.376" stroke="#302454"/>
<path fill-rule="evenodd" clip-rule="evenodd" d="M128.668 98.8563C131.416 105.34 140.813 105.38 143.611 98.9194L144.537 96.7796C151.847 99.1906 157.658 90.5432 152.479 84.9611L149.547 81.8011L151.827 72.6333C153.238 66.9599 148.071 61.8014 142.225 63.047L132.78 65.06L129.609 62.1277C124.009 56.9476 115.015 62.4168 117.317 69.6025L115.103 70.4572C108.42 73.0374 108.244 82.2051 114.824 85.0343L124.591 89.2333L128.668 98.8563ZM194.699 128.648C188.711 122.669 180.712 120.732 176.848 124.417C175.001 126.178 174.377 129.012 175.113 132.296C175.849 135.58 177.885 139.044 180.772 141.928L166.846 155.207C164.999 156.968 162.08 157.512 158.733 156.718C155.385 155.925 151.882 153.859 148.994 150.976L61.8884 64.0095C59.0007 61.1264 56.9648 57.6618 56.2288 54.3779C55.4928 51.094 56.1168 48.2598 57.9636 46.4988L71.8904 33.2191C74.7781 36.1023 78.2812 38.1678 81.6291 38.9612C84.9769 39.7547 87.8952 39.2111 89.742 37.4502C93.5719 33.7982 91.8602 25.9728 85.8172 19.9395L99.7441 6.65981C101.591 4.89882 104.509 4.35527 107.857 5.14874C111.205 5.9422 114.708 8.0077 117.596 10.8908L204.701 97.8576C210.69 103.837 212.491 111.683 208.626 115.368L194.699 128.648ZM65.9562 62.1598C69.3303 63.3857 73.0593 61.6442 74.2852 58.2702C75.5111 54.8961 73.7696 51.1672 70.3956 49.9413C67.0215 48.7154 63.2925 50.4568 62.0666 53.8309C60.8408 57.205 62.5822 60.9339 65.9562 62.1598Z" fill="#FF3E3E"/>
<ellipse cx="128.931" cy="80.0896" rx="34.6042" ry="28.3005" transform="rotate(45.6586 128.931 80.0896)" fill="#FF3E3E"/>
<path d="M63.5 55.7031C61.2687 49.536 45.73 48.8011 29.4598 55.7065C13.1896 62.612 1.80886 73.2094 4.0402 79.3765" stroke="#302454"/>
</svg>
