<svg width="149" height="86" viewBox="0 0 149 86" fill="none" xmlns="http://www.w3.org/2000/svg">
<path d="M92.2864 44.2542C95.699 50.483 89.9071 57.7389 83.0769 55.7915L75.2233 53.5524L68.0021 57.3663C61.7217 60.6832 54.5553 54.781 56.607 47.9813L56.7875 47.3831C50.2449 44.8693 51.3238 35.2991 58.2619 34.3051L62.1943 33.7417L65.6054 26.7657C68.2015 21.4564 75.4603 20.6981 79.0976 25.3563L83.8767 31.4767L87.8407 31.2152C94.8344 30.7538 97.868 39.8945 91.9861 43.7062L92.2864 44.2542ZM130.392 36.6697C129.882 31.7858 135.809 27.2081 143.552 26.3992L141.714 8.79988C141.204 3.91607 134.459 0.662068 126.715 1.471L14.0795 13.2372C10.3454 13.6273 6.86104 14.9285 4.39302 16.8546C1.925 18.7807 0.67544 21.1739 0.919237 23.5077L2.75771 41.107C10.5718 40.2907 17.2508 43.5961 17.7564 48.4359C18.0002 50.7697 16.7507 53.1629 14.2826 55.089C11.8146 57.0151 8.33029 58.3163 4.59618 58.7063L6.43466 76.3057C6.67845 78.6395 8.39563 80.7227 11.2084 82.0972C14.0212 83.4716 17.6993 84.0246 21.4334 83.6346L134.069 71.8683C137.803 71.4782 141.287 70.177 143.756 68.251C146.224 66.3249 147.473 63.9317 147.229 61.5979L145.391 43.9985C141.657 44.3886 137.979 43.8356 135.166 42.4612C132.353 41.0867 130.636 39.0035 130.392 36.6697Z" fill="#FF3E3E"/>
<ellipse cx="73.5441" cy="41.9576" rx="32.2276" ry="26.3569" transform="rotate(-5.96364 73.5441 41.9576)" fill="#FF3E3E"/>
<path d="M25.9986 36.7227L28.0872 36.5045C28.9877 36.4104 29.7645 36.6155 30.4177 37.1197C31.071 37.6239 31.4427 38.3076 31.5329 39.1709C31.6231 40.0342 31.4007 40.7801 30.8658 41.4084C30.3308 42.0367 29.6131 42.3979 28.7127 42.4919L25.0228 42.8774L24.0046 33.1304L29.992 32.505L30.152 34.0366L25.7659 34.4948L25.9986 36.7227ZM26.467 41.2063L28.5556 40.9881C29.0012 40.9416 29.3538 40.7687 29.6134 40.4694C29.8721 40.1609 29.9782 39.7838 29.9316 39.3382C29.8851 38.8926 29.7039 38.5503 29.388 38.3111C29.0711 38.0627 28.6899 37.9618 28.2443 38.0083L26.1557 38.2265L26.467 41.2063ZM39.5325 38.4901L33.9907 39.069C34.1564 39.5772 34.4492 39.9549 34.8691 40.2019C35.2983 40.448 35.8054 40.5405 36.3902 40.4794C37.1792 40.3969 37.7479 40.0466 38.0962 39.4284L39.4111 40.023C38.8392 41.1056 37.8756 41.7177 36.5203 41.8593C35.397 41.9767 34.4468 41.7287 33.6695 41.1155C32.9006 40.492 32.4609 39.6511 32.3503 38.5929C32.2427 37.5625 32.4955 36.6587 33.1087 35.8814C33.7127 35.1051 34.5577 34.6603 35.6438 34.5468C36.6556 34.4411 37.5284 34.7112 38.2621 35.3572C38.9959 36.0031 39.4161 36.8366 39.5228 37.8577C39.5421 38.0434 39.5454 38.2542 39.5325 38.4901ZM33.8487 37.8452L37.9425 37.4175C37.7831 36.8805 37.507 36.4824 37.1139 36.2231C36.7301 35.9629 36.2829 35.8595 35.7724 35.9128C35.2154 35.971 34.7673 36.1727 34.428 36.5178C34.0887 36.8629 33.8956 37.3054 33.8487 37.8452ZM44.5058 41.0251C43.4569 41.1347 42.5428 40.8736 41.7636 40.2418C40.9927 39.5997 40.554 38.7682 40.4473 37.7471C40.3387 36.7074 40.5961 35.8031 41.2196 35.0341C41.8514 34.2549 42.6918 33.8106 43.7407 33.701C44.4184 33.6302 45.0527 33.7282 45.6436 33.9949C46.2345 34.2616 46.6978 34.6542 47.0335 35.1728L45.8171 36.06C45.6243 35.7423 45.3558 35.5076 45.0115 35.3559C44.6756 35.1939 44.2987 35.1348 43.881 35.1784C43.2683 35.2424 42.7749 35.5051 42.4009 35.9664C42.037 36.4361 41.8871 36.9773 41.9511 37.59C42.0151 38.2026 42.2736 38.7011 42.7267 39.0855C43.188 39.4596 43.7251 39.6146 44.3377 39.5506C44.7462 39.5079 45.1031 39.3768 45.4086 39.1572C45.7225 38.9274 45.9455 38.6366 46.0776 38.285L47.4497 38.8877C47.2108 39.4757 46.8252 39.9617 46.2929 40.3458C45.7699 40.7289 45.1742 40.9553 44.5058 41.0251ZM48.0538 33.4334L54.25 32.7861L54.9773 39.7483L53.4735 39.9053L52.8946 34.3635L49.7059 34.6966L50.2849 40.2384L48.781 40.3955L48.0538 33.4334ZM56.5714 32.5436L61.9044 31.9865L62.6317 38.9487L61.1278 39.1058L60.5518 33.5918L58.2265 33.8347L58.497 36.4246C58.6105 37.5107 58.4552 38.3152 58.0313 38.838C57.6073 39.3609 56.9361 39.6281 56.0176 39.6396L55.8707 38.2332C56.3055 38.2629 56.6165 38.1412 56.8039 37.8683C56.9902 37.5861 57.0509 37.134 56.9859 36.5121L56.5714 32.5436ZM69.3074 32.2126L69.2042 31.224L70.708 31.0669L71.4353 38.029L69.9315 38.1861L69.8267 37.1836C69.3429 38.0318 68.5719 38.5111 67.5136 38.6217C66.5575 38.7215 65.7038 38.4541 64.9524 37.8194C64.2011 37.1847 63.7716 36.3522 63.6639 35.3218C63.5563 34.2914 63.8045 33.3881 64.4084 32.6118C65.0123 31.8355 65.7924 31.3974 66.7485 31.2975C67.8068 31.187 68.6597 31.492 69.3074 32.2126ZM65.9616 36.7005C66.423 37.0746 66.9693 37.2287 67.6005 37.1627C68.2317 37.0968 68.7344 36.8332 69.1085 36.3718C69.4816 35.9011 69.6347 35.3456 69.5678 34.705C69.5009 34.0645 69.2368 33.5572 68.7754 33.1831C68.3131 32.7998 67.7663 32.6411 67.1351 32.707C66.5038 32.7729 66.0016 33.0412 65.6285 33.5119C65.2544 33.9732 65.1008 34.5242 65.1678 35.1647C65.2337 35.7959 65.4983 36.3079 65.9616 36.7005ZM71.7562 30.9574L77.8133 30.3247L77.9646 31.7728L75.6949 32.0099L76.2709 37.5239L74.7671 37.681L74.1911 32.167L71.9075 32.4055L71.7562 30.9574ZM83.8462 32.4956L83.5567 29.7247L85.0605 29.5676L85.7878 36.5297L84.284 36.6868L83.9945 33.9159L80.8059 34.249L81.0954 37.0199L79.5915 37.177L78.8643 30.2149L80.3681 30.0578L80.6575 32.8287L83.8462 32.4956ZM93.3644 34.8514C92.7326 35.6306 91.9015 36.074 90.8711 36.1817C89.8408 36.2893 88.936 36.0272 88.1568 35.3954C87.3673 34.7553 86.9193 33.9247 86.8126 32.9036C86.7059 31.8825 86.9727 30.9772 87.6128 30.1878C88.2446 29.4086 89.0757 28.9652 90.106 28.8575C91.1364 28.7499 92.0412 29.012 92.8204 29.6438C93.6099 30.2839 94.0579 31.1145 94.1646 32.1356C94.2713 33.1567 94.0045 34.062 93.3644 34.8514ZM88.3164 32.7465C88.3824 33.3777 88.646 33.8804 89.1074 34.2545C89.5687 34.6286 90.1058 34.7836 90.7184 34.7196C91.3311 34.6556 91.8245 34.393 92.1986 33.9316C92.5726 33.4702 92.7267 32.9239 92.6608 32.2927C92.5948 31.6615 92.3312 31.1588 91.8698 30.7847C91.4085 30.4106 90.8714 30.2556 90.2588 30.3196C89.6461 30.3836 89.1527 30.6463 88.7786 31.1076C88.4046 31.569 88.2505 32.1153 88.3164 32.7465ZM104.835 27.5019L105.414 33.0437L106.347 32.9463L106.69 36.2324L105.214 36.3866L105.02 34.5207L100.244 35.0196L100.438 36.8855L98.9625 37.0397L98.6192 33.7535L99.4686 33.6648C99.8335 33.0261 99.9593 32.1637 99.8458 31.0776L99.5302 28.0561L104.835 27.5019ZM101.126 33.4917L103.938 33.1979L103.503 29.0345L101.15 29.2804L101.322 30.9234C101.427 31.926 101.361 32.7821 101.126 33.4917ZM107.566 27.2166L112.899 26.6595L113.626 33.6216L112.123 33.7787L111.547 28.2647L109.221 28.5076L109.492 31.0975C109.605 32.1836 109.45 32.9881 109.026 33.511C108.602 34.0339 107.931 34.301 107.012 34.3125L106.866 32.9062C107.3 32.9358 107.611 32.8142 107.799 32.5413C107.985 32.259 108.046 31.8069 107.981 31.185L107.566 27.2166ZM116.969 26.2344L120.074 25.91L120.801 32.8721L119.325 33.0263L119.081 30.6871L118.245 30.7743L116.721 33.2983L114.953 33.4831L116.574 30.8082C116.074 30.7008 115.655 30.463 115.317 30.0949C114.987 29.7258 114.797 29.2953 114.745 28.8033C114.679 28.1628 114.849 27.596 115.258 27.1029C115.665 26.6005 116.235 26.311 116.969 26.2344ZM117.4 29.5536L118.945 29.3921L118.74 27.4288L117.195 27.5902C116.879 27.6232 116.629 27.7432 116.444 27.9502C116.267 28.1469 116.195 28.3938 116.226 28.6909C116.257 28.9879 116.379 29.2144 116.592 29.3705C116.815 29.5255 117.084 29.5865 117.4 29.5536ZM29.3064 51.1471C29.1402 51.3521 28.9271 51.4682 28.6672 51.4954C28.4072 51.5225 28.1701 51.4535 27.9558 51.2882C27.7498 51.1126 27.6332 50.8949 27.606 50.635C27.5789 50.3751 27.6484 50.1426 27.8147 49.9375C27.98 49.7232 28.1972 49.602 28.4664 49.5738C28.7356 49.5457 28.9732 49.6194 29.1793 49.795C29.3843 49.9612 29.5004 50.1743 29.5276 50.4342C29.5547 50.6942 29.481 50.9318 29.3064 51.1471ZM30.2554 59.4233L28.7516 59.5804L28.0243 52.6182L29.5282 52.4612L30.2554 59.4233ZM40.1443 57.0953C39.2714 58.1718 38.1295 58.7837 36.7185 58.9311C35.3075 59.0785 34.0591 58.7163 32.9733 57.8444C31.8958 56.9622 31.2834 55.8156 31.136 54.4046C30.9886 52.9936 31.3513 51.7499 32.2242 50.6734C33.1054 49.5866 34.2515 48.9695 35.6625 48.8221C37.0734 48.6747 38.3177 49.0421 39.3952 49.9243C40.481 50.7962 41.0976 51.9376 41.245 53.3486C41.3923 54.7596 41.0255 56.0085 40.1443 57.0953ZM33.9877 56.6404C34.7342 57.2287 35.5901 57.4725 36.5556 57.3716C37.5302 57.2698 38.3127 56.8549 38.9029 56.127C39.5015 55.3888 39.7484 54.5184 39.6437 53.5159C39.5389 52.5133 39.118 51.7174 38.3808 51.1282C37.6519 50.5287 36.8001 50.2798 35.8254 50.3816C34.8507 50.4835 34.064 50.9035 33.4655 51.6416C32.8753 52.3696 32.6325 53.2348 32.7372 54.2374C32.841 55.2306 33.2578 56.0316 33.9877 56.6404ZM46.1442 57.9465C45.2066 58.0444 44.3865 57.919 43.6838 57.5701C42.9894 57.2109 42.4729 56.669 42.1345 55.9442L43.4286 54.9926C43.9329 56.0473 44.7977 56.5106 46.0231 56.3826C46.6172 56.3205 47.0553 56.1575 47.3374 55.8934C47.6194 55.6293 47.7401 55.3024 47.6994 54.9125C47.6587 54.5226 47.4647 54.2379 47.1175 54.0583C46.7703 53.8787 46.1705 53.7068 45.3182 53.5425C44.4473 53.3801 43.7339 53.1543 43.1782 52.8651C42.5004 52.4855 42.1165 51.864 42.0263 51.0007C41.9361 50.1374 42.1712 49.4231 42.7315 48.8579C43.2815 48.2843 43.9928 47.9519 44.8654 47.8608C45.6359 47.7803 46.3334 47.8998 46.958 48.2193C47.5909 48.5285 48.1005 49.0055 48.4869 49.6502L47.2177 50.571C46.7143 49.704 45.9845 49.3204 45.0283 49.4203C44.5642 49.4688 44.2045 49.6189 43.9493 49.8708C43.6931 50.1134 43.5844 50.4204 43.6232 50.7917C43.661 51.1537 43.8303 51.4269 44.1311 51.6113C44.4309 51.7865 44.9689 51.9508 45.7451 52.1043C46.2257 52.2137 46.5046 52.2784 46.5818 52.2985C46.7063 52.323 46.9574 52.3906 47.3349 52.5013C47.6446 52.5909 47.8949 52.6962 48.0858 52.817C48.869 53.3076 49.273 53.9411 49.2978 54.7174C49.3899 55.5992 49.1429 56.3335 48.5566 56.9203C47.988 57.4958 47.1839 57.8379 46.1442 57.9465ZM55.6319 54.1964L58.7354 49.4101L59.8911 49.2894L60.6184 56.2515L59.1424 56.4057L58.6799 51.9778L55.5778 56.778L54.4221 56.8988L53.6948 49.9366L55.1708 49.7825L55.6319 54.1964ZM74.0847 54.8447L72.3581 55.0251L71.4707 53.1331L67.3213 53.5665L66.8441 55.6011L65.1036 55.7829L67.6221 45.6665L69.5437 45.4658L74.0847 54.8447ZM68.7793 47.4459L67.6933 52.0074L70.7845 51.6845L68.7793 47.4459ZM77.9847 47.2163C78.7923 47.1319 79.4646 47.3244 80.0016 47.7938C80.5469 48.253 80.8656 48.9235 80.9577 49.8054L81.4043 54.0801L79.9005 54.2372L79.4699 50.1156C79.4156 49.5958 79.2347 49.2112 78.9271 48.9618C78.6195 48.7124 78.2244 48.6129 77.7417 48.6633C77.194 48.7206 76.7803 48.9374 76.5006 49.3138C76.2198 49.681 76.1139 50.1941 76.1828 50.8532L76.5726 54.5849L75.0688 54.742L74.3415 47.7798L75.8453 47.6227L75.9384 48.5139C76.3279 47.7506 77.01 47.3181 77.9847 47.2163ZM87.9469 47.358L87.5528 43.5845L89.0566 43.4274L90.0748 53.1744L88.5709 53.3315L88.4662 52.3289C87.9824 53.1771 87.2114 53.6565 86.1531 53.767C85.197 53.8669 84.3432 53.5995 83.5919 52.9648C82.8406 52.3301 82.4111 51.4975 82.3034 50.4672C82.1958 49.4368 82.444 48.5334 83.0479 47.7571C83.6518 46.9809 84.4319 46.5428 85.388 46.4429C86.4463 46.3323 87.2992 46.6374 87.9469 47.358ZM84.6011 51.8459C85.0625 52.22 85.6088 52.3741 86.24 52.3081C86.8712 52.2422 87.3739 51.9785 87.748 51.5172C88.1211 51.0465 88.2742 50.4909 88.2073 49.8504C88.1404 49.2099 87.8763 48.7026 87.4149 48.3285C86.9526 47.9451 86.4058 47.7864 85.7745 47.8524C85.1433 47.9183 84.6411 48.1866 84.268 48.6572C83.8939 49.1186 83.7403 49.6695 83.8072 50.3101C83.8732 50.9413 84.1378 51.4532 84.6011 51.8459ZM92.6375 45.8686L92.7597 47.0382C93.0501 46.1352 93.7198 45.6288 94.7688 45.5193L94.939 47.1484C94.3688 47.1704 93.8821 47.362 93.4788 47.7232C93.0838 48.0742 92.9236 48.607 92.9983 49.3218L93.3648 52.8307L91.861 52.9878L91.1337 46.0257L92.6375 45.8686ZM102.126 51.0287C101.494 51.8079 100.663 52.2513 99.6324 52.359C98.602 52.4666 97.6972 52.2045 96.918 51.5727C96.1285 50.9326 95.6805 50.102 95.5738 49.0809C95.4671 48.0598 95.7339 47.1545 96.374 46.3651C97.0058 45.5859 97.8369 45.1425 98.8673 45.0348C99.8977 44.9272 100.802 45.1893 101.582 45.8211C102.371 46.4612 102.819 47.2918 102.926 48.3129C103.032 49.334 102.766 50.2393 102.126 51.0287ZM97.0776 48.9238C97.1436 49.555 97.4072 50.0577 97.8686 50.4318C98.3299 50.8059 98.867 50.9609 99.4796 50.8969C100.092 50.8329 100.586 50.5702 100.96 50.1089C101.334 49.6475 101.488 49.1012 101.422 48.47C101.356 47.8387 101.092 47.3361 100.631 46.962C100.17 46.5879 99.6327 46.4329 99.02 46.4969C98.4073 46.5609 97.9139 46.8235 97.5399 47.2849C97.1658 47.7463 97.0117 48.2926 97.0776 48.9238ZM105.237 43.2151C105.071 43.4202 104.858 43.5363 104.598 43.5634C104.338 43.5906 104.101 43.5215 103.887 43.3562C103.681 43.1807 103.564 42.9629 103.537 42.703C103.51 42.4431 103.579 42.2106 103.746 42.0056C103.911 41.7912 104.128 41.67 104.397 41.6419C104.667 41.6138 104.904 41.6875 105.11 41.863C105.315 42.0293 105.431 42.2424 105.459 42.5023C105.486 42.7622 105.412 42.9998 105.237 43.2151ZM106.186 51.4913L104.683 51.6484L103.955 44.6863L105.459 44.5292L106.186 51.4913ZM112.856 44.7559L112.462 40.9825L113.966 40.8254L114.984 50.5723L113.48 50.7294L113.375 49.7269C112.891 50.5751 112.12 51.0544 111.062 51.165C110.106 51.2649 109.252 50.9974 108.501 50.3627C107.75 49.728 107.32 48.8955 107.212 47.8651C107.105 46.8347 107.353 45.9314 107.957 45.1551C108.561 44.3788 109.341 43.9407 110.297 43.8408C111.355 43.7303 112.208 44.0353 112.856 44.7559ZM109.51 49.2438C109.971 49.6179 110.518 49.772 111.149 49.7061C111.78 49.6401 112.283 49.3765 112.657 48.9151C113.03 48.4445 113.183 47.8889 113.116 47.2484C113.049 46.6078 112.785 46.1005 112.324 45.7264C111.862 45.3431 111.315 45.1844 110.684 45.2503C110.052 45.3162 109.55 45.5845 109.177 46.0552C108.803 46.5165 108.649 47.0675 108.716 47.708C108.782 48.3392 109.047 48.8512 109.51 49.2438ZM118.511 41.716L119.755 41.5015L119.86 42.504L118.598 42.5514L119.441 43.4769L118.633 44.0962L117.899 43.0045L117.407 44.2242L116.489 43.7852L117.136 42.7041L115.878 42.9201L115.773 41.9175L117.049 41.8687L116.192 40.9447L117 40.3254L117.733 41.4171L118.225 40.1974L119.144 40.6363L118.511 41.716Z" fill="white"/>
</svg>
