<svg width="104" height="71" viewBox="0 0 104 71" fill="none" xmlns="http://www.w3.org/2000/svg">
<path d="M63.7526 33.9774C66.7595 37.8319 63.6267 43.4014 58.7713 42.8333L53.7786 42.2492L49.7683 45.2801C45.8684 48.2276 40.3474 45.01 40.9897 40.1638V40.1638V40.1638C36.4164 39.2103 36.1019 32.7988 40.5599 31.4022L43.0867 30.6107L43.3499 29.7397C45.0598 24.0823 52.1026 22.1683 56.4408 26.1819L57.1087 26.7998L59.6885 26.2035C64.2402 25.1515 67.2142 30.8403 63.7526 33.9774V33.9774V33.9774ZM88.266 25.2376C87.4077 22.0792 90.8168 18.4333 95.8246 17.0723L92.7314 5.69081C91.8731 2.53245 87.0875 1.11362 82.0797 2.47463L9.23823 22.2711C6.82339 22.9273 4.6704 24.1563 3.25289 25.6876C1.83538 27.2189 1.26947 28.9271 1.67965 30.4363L4.77284 41.8178C9.82622 40.4444 14.574 41.9041 15.4246 45.034C15.8348 46.5433 15.2689 48.2514 13.8514 49.7827C12.4339 51.314 10.2809 52.543 7.86604 53.1993L10.9592 64.5808C11.3694 66.09 12.7221 67.2768 14.7197 67.8799C16.7173 68.4831 19.1962 68.4532 21.611 67.7969L94.4524 48.0005C96.8673 47.3442 99.0202 46.1153 100.438 44.584C101.855 43.0527 102.421 41.3445 102.011 39.8352L98.9178 28.4538C96.503 29.11 94.0241 29.1399 92.0265 28.5367C90.0289 27.9336 88.6762 26.7468 88.266 25.2376Z" fill="#FF3E3E"/>
<ellipse cx="51.433" cy="34.801" rx="21.4806" ry="17.5676" transform="rotate(-15.2043 51.433 34.801)" fill="#FF3E3E"/>
</svg>
