<svg width="13" height="15" viewBox="0 0 13 15" fill="none" xmlns="http://www.w3.org/2000/svg">
<path d="M3.66665 6.08333V3.95833C3.66665 3.01412 4.23331 1.125 6.49998 1.125C7.84865 1.125 8.59523 1.79367 8.97915 2.53458M6.49998 8.91667V11.0417M3.66665 6.08333H2.24998C1.87426 6.08333 1.51392 6.23259 1.24825 6.49827C0.982568 6.76394 0.833313 7.12428 0.833313 7.5V12.4583C0.833313 12.8341 0.982568 13.1944 1.24825 13.4601C1.51392 13.7257 1.87426 13.875 2.24998 13.875H10.75C11.1257 13.875 11.486 13.7257 11.7517 13.4601C12.0174 13.1944 12.1666 12.8341 12.1666 12.4583V7.5C12.1666 7.12428 12.0174 6.76394 11.7517 6.49827C11.486 6.23259 11.1257 6.08333 10.75 6.08333H3.66665Z" stroke="white" stroke-linecap="round" stroke-linejoin="round"/>
</svg>
